<svg width="204" height="52" viewBox="0 0 204 52" fill="none" xmlns="http://www.w3.org/2000/svg">
<path d="M57.3438 26.0625C57.0417 26.1146 56.7708 26.1719 56.5312 26.2344C56.2917 26.3073 55.9948 26.3438 55.6406 26.3438C55.2552 26.3438 54.9583 26.2344 54.75 26.0156C54.5417 25.7969 54.4375 25.5521 54.4375 25.2812C54.4375 25.0625 54.474 24.7812 54.5469 24.4375C54.6198 24.0833 54.6562 23.7292 54.6562 23.375C54.5833 22.0312 54.4844 20.7031 54.3594 19.3906C54.2448 18.0677 54.1302 16.8594 54.0156 15.7656C53.901 14.6719 53.8021 13.7396 53.7188 12.9688C53.6354 12.1875 53.5938 11.6562 53.5938 11.375C53.5938 11.1875 53.6406 11.0156 53.7344 10.8594C53.8281 10.6927 53.9583 10.5469 54.125 10.4219C54.2917 10.2969 54.4844 10.2031 54.7031 10.1406C54.9323 10.0677 55.1719 10.0312 55.4219 10.0312C55.9115 10.0312 56.2708 10.1094 56.5 10.2656C56.7292 10.4115 56.8698 10.651 56.9219 10.9844C57.2135 13.224 57.4219 15.2812 57.5469 17.1562C57.6823 19.0208 57.776 20.7708 57.8281 22.4062C57.8281 22.6458 57.8906 22.8281 58.0156 22.9531C58.151 23.0781 58.3229 23.1406 58.5312 23.1406C58.9479 23.1406 59.3698 23.1198 59.7969 23.0781C60.224 23.026 60.651 22.974 61.0781 22.9219C61.5052 22.8698 61.9271 22.8229 62.3438 22.7812C62.7708 22.7292 63.1823 22.7031 63.5781 22.7031C63.8385 22.7031 64.0469 22.7344 64.2031 22.7969C64.3698 22.8594 64.4948 22.9427 64.5781 23.0469C64.6719 23.151 64.7292 23.2708 64.75 23.4062C64.7812 23.5312 64.7969 23.6562 64.7969 23.7812C64.7969 23.9792 64.776 24.1771 64.7344 24.375C64.6927 24.5729 64.6198 24.7552 64.5156 24.9219C64.4115 25.0781 64.2708 25.2083 64.0938 25.3125C63.9167 25.4271 63.6927 25.4948 63.4219 25.5156C62.1406 25.6406 60.9688 25.7344 59.9062 25.7969C58.8542 25.8594 58 25.9479 57.3438 26.0625ZM65.2188 19.8125C65.2188 19.6354 65.2396 19.4375 65.2812 19.2188C65.3229 19 65.3438 18.7604 65.3438 18.5C65.3438 18.3229 65.2656 18.1875 65.1094 18.0938C64.9635 18 64.7969 17.8958 64.6094 17.7812C64.4219 17.6667 64.25 17.5208 64.0938 17.3438C63.9479 17.1667 63.875 16.9115 63.875 16.5781C63.875 16.3385 63.9375 16.099 64.0625 15.8594C64.1979 15.6198 64.3906 15.401 64.6406 15.2031C65.2552 14.7448 65.8906 14.3333 66.5469 13.9688C67.2135 13.6042 67.875 13.2969 68.5312 13.0469C69.1979 12.7969 69.8542 12.6042 70.5 12.4688C71.1458 12.3333 71.7656 12.2656 72.3594 12.2656C73.3594 12.2656 74.2969 12.4531 75.1719 12.8281C76.0573 13.1927 76.8229 13.6979 77.4688 14.3438C78.125 14.9792 78.6406 15.7292 79.0156 16.5938C79.401 17.4479 79.5938 18.3646 79.5938 19.3438C79.5938 20.3021 79.3906 21.2135 78.9844 22.0781C78.5885 22.9323 78.0521 23.6823 77.375 24.3281C76.6979 24.974 75.901 25.4844 74.9844 25.8594C74.0781 26.2448 73.1198 26.4375 72.1094 26.4375C71.1198 26.4375 70.2031 26.2708 69.3594 25.9375C68.5156 25.6042 67.7865 25.1458 67.1719 24.5625C66.5573 23.9688 66.0781 23.2708 65.7344 22.4688C65.3906 21.6562 65.2188 20.7708 65.2188 19.8125ZM72.4531 23.625C72.8906 23.625 73.3438 23.5365 73.8125 23.3594C74.2812 23.1823 74.7083 22.9271 75.0938 22.5938C75.4896 22.25 75.8125 21.8333 76.0625 21.3438C76.3229 20.8542 76.4531 20.3021 76.4531 19.6875C76.4531 19.0625 76.3385 18.4792 76.1094 17.9375C75.8802 17.3958 75.5625 16.9271 75.1562 16.5312C74.7604 16.125 74.2865 15.8073 73.7344 15.5781C73.1927 15.349 72.6042 15.2344 71.9688 15.2344C70.8125 15.2344 69.9271 15.5365 69.3125 16.1406C68.6979 16.7344 68.3906 17.651 68.3906 18.8906C68.3906 19.5677 68.4896 20.1979 68.6875 20.7812C68.8958 21.3542 69.1823 21.8542 69.5469 22.2812C69.9115 22.6979 70.3385 23.026 70.8281 23.2656C71.3281 23.5052 71.8698 23.625 72.4531 23.625ZM89.9062 12.8125C90.4062 12.8125 90.8802 12.8542 91.3281 12.9375C91.776 13.0104 92.1823 13.0938 92.5469 13.1875C92.9115 13.2708 93.224 13.3542 93.4844 13.4375C93.7448 13.5104 93.9323 13.5469 94.0469 13.5469C94.1406 13.5469 94.2292 13.5 94.3125 13.4062C94.3958 13.3021 94.5 13.1927 94.625 13.0781C94.75 12.9635 94.9167 12.8594 95.125 12.7656C95.3333 12.6615 95.6094 12.6094 95.9531 12.6094C96.349 12.6094 96.6615 12.7135 96.8906 12.9219C97.1198 13.1198 97.2344 13.3698 97.2344 13.6719C97.2344 17.4844 97.1042 20.724 96.8438 23.3906C96.5833 26.0469 96.1615 28.2083 95.5781 29.875C94.9948 31.5417 94.2396 32.75 93.3125 33.5C92.3854 34.25 91.2604 34.625 89.9375 34.625C89.3333 34.625 88.7031 34.4896 88.0469 34.2188C87.401 33.9479 86.8073 33.599 86.2656 33.1719C85.724 32.7552 85.276 32.2917 84.9219 31.7812C84.5781 31.2708 84.4062 30.7812 84.4062 30.3125C84.4062 30.1562 84.4896 29.974 84.6562 29.7656C84.8229 29.5573 85.026 29.3542 85.2656 29.1562C85.5052 28.9583 85.7552 28.7917 86.0156 28.6562C86.276 28.5208 86.5 28.4531 86.6875 28.4531C86.8854 28.4531 87.0521 28.5312 87.1875 28.6875C87.3229 28.8542 87.4479 29.0573 87.5625 29.2969C87.6875 29.5365 87.8125 29.7969 87.9375 30.0781C88.0625 30.3698 88.2188 30.6354 88.4062 30.875C88.5938 31.1146 88.8229 31.3125 89.0938 31.4688C89.3646 31.6354 89.7031 31.7188 90.1094 31.7188C92.3802 31.7188 93.7135 28.25 94.1094 21.3125C94.1094 21 94.0208 20.8438 93.8438 20.8438C93.6979 20.8438 93.5833 20.9167 93.5 21.0625C92.5208 22.3854 91.375 23.3802 90.0625 24.0469C88.7604 24.7031 87.3125 25.0312 85.7188 25.0312C84.9792 25.0312 84.2969 24.9219 83.6719 24.7031C83.0469 24.474 82.5052 24.1615 82.0469 23.7656C81.599 23.3594 81.25 22.8802 81 22.3281C80.75 21.7656 80.625 21.151 80.625 20.4844C80.625 19.8281 80.7396 19.1823 80.9688 18.5469C81.2083 17.901 81.5365 17.2969 81.9531 16.7344C82.3802 16.1615 82.8854 15.6354 83.4688 15.1562C84.0521 14.6771 84.6875 14.2656 85.375 13.9219C86.0625 13.5677 86.7865 13.2969 87.5469 13.1094C88.3177 12.9115 89.1042 12.8125 89.9062 12.8125ZM86.2031 22.1562C87.6302 22.1562 88.9375 21.7083 90.125 20.8125C91.3125 19.9062 92.3281 18.5938 93.1719 16.875C93.1927 16.8125 93.2083 16.7656 93.2188 16.7344C93.2292 16.6927 93.2344 16.651 93.2344 16.6094C93.2344 16.5052 93.125 16.3958 92.9062 16.2812C92.6875 16.1667 92.401 16.0677 92.0469 15.9844C91.6927 15.901 91.2865 15.8333 90.8281 15.7812C90.3802 15.7188 89.9271 15.6875 89.4688 15.6875C88.7292 15.6875 88.0156 15.8125 87.3281 16.0625C86.6406 16.3125 86.0312 16.6458 85.5 17.0625C84.9688 17.4792 84.5417 17.9531 84.2188 18.4844C83.8958 19.0156 83.7344 19.5677 83.7344 20.1406C83.7344 20.7552 83.9583 21.2448 84.4062 21.6094C84.8646 21.974 85.4635 22.1562 86.2031 22.1562ZM102.984 18.5938C102.984 19.2188 103.135 19.8021 103.438 20.3438C103.75 20.875 104.156 21.3438 104.656 21.75C105.156 22.1458 105.729 22.4583 106.375 22.6875C107.021 22.9062 107.682 23.0156 108.359 23.0156C108.568 23.0156 108.781 23 109 22.9688C109.219 22.9271 109.417 22.8594 109.594 22.7656C109.771 22.6719 109.917 22.5521 110.031 22.4062C110.146 22.25 110.203 22.0573 110.203 21.8281C110.203 21.3906 110.047 20.9583 109.734 20.5312C109.432 20.1042 109.031 19.6823 108.531 19.2656C108.031 18.8385 107.458 18.4167 106.812 18C106.167 17.5729 105.51 17.151 104.844 16.7344C104.177 16.3177 103.521 15.901 102.875 15.4844C102.229 15.0573 101.656 14.6354 101.156 14.2188C100.656 13.7917 100.25 13.3646 99.9375 12.9375C99.6354 12.5 99.4844 12.0625 99.4844 11.625C99.4844 11.2083 99.5885 10.8229 99.7969 10.4688C100.016 10.1042 100.302 9.77604 100.656 9.48438C101.01 9.19271 101.422 8.93229 101.891 8.70312C102.359 8.47396 102.849 8.28125 103.359 8.125C103.87 7.96875 104.38 7.85417 104.891 7.78125C105.411 7.69792 105.906 7.65625 106.375 7.65625C106.719 7.65625 107.094 7.66667 107.5 7.6875C107.917 7.69792 108.302 7.74479 108.656 7.82812C109.021 7.90104 109.323 8.01562 109.562 8.17188C109.802 8.32812 109.922 8.55208 109.922 8.84375C109.922 8.9375 109.906 9.05729 109.875 9.20312C109.844 9.33854 109.755 9.56771 109.609 9.89062C109.464 10.1927 109.292 10.4219 109.094 10.5781C108.906 10.724 108.661 10.7969 108.359 10.7969C107.932 10.7969 107.479 10.75 107 10.6562C106.531 10.5521 106.057 10.5 105.578 10.5C105.318 10.5 105.052 10.5156 104.781 10.5469C104.521 10.5677 104.281 10.6146 104.062 10.6875C103.844 10.75 103.667 10.849 103.531 10.9844C103.396 11.1094 103.328 11.2708 103.328 11.4688C103.328 11.6667 103.469 11.8906 103.75 12.1406C104.042 12.3906 104.422 12.6667 104.891 12.9688C105.37 13.2708 105.911 13.6042 106.516 13.9688C107.12 14.3229 107.734 14.7083 108.359 15.125C108.995 15.5312 109.615 15.9688 110.219 16.4375C110.823 16.8958 111.359 17.3854 111.828 17.9062C112.307 18.4167 112.688 18.9583 112.969 19.5312C113.26 20.1042 113.406 20.6979 113.406 21.3125C113.406 22.0625 113.234 22.724 112.891 23.2969C112.547 23.8698 112.104 24.349 111.562 24.7344C111.021 25.1198 110.422 25.4062 109.766 25.5938C109.109 25.7917 108.469 25.8906 107.844 25.8906C107.208 25.8906 106.562 25.8125 105.906 25.6562C105.26 25.5104 104.635 25.2969 104.031 25.0156C103.427 24.7448 102.859 24.4167 102.328 24.0312C101.807 23.6354 101.354 23.1979 100.969 22.7188C100.583 22.2292 100.276 21.7031 100.047 21.1406C99.8281 20.5781 99.7188 19.9896 99.7188 19.375C99.7188 19.1146 99.7344 18.8542 99.7656 18.5938C99.8073 18.3229 99.875 18.0885 99.9688 17.8906C100.062 17.6823 100.193 17.5156 100.359 17.3906C100.526 17.2552 100.74 17.1875 101 17.1875C101.083 17.1875 101.177 17.1979 101.281 17.2188C101.385 17.2292 101.568 17.276 101.828 17.3594C102.13 17.4531 102.396 17.6042 102.625 17.8125C102.865 18.0104 102.984 18.2708 102.984 18.5938ZM114.906 19.8125C114.906 19.6354 114.927 19.4375 114.969 19.2188C115.01 19 115.031 18.7604 115.031 18.5C115.031 18.3229 114.953 18.1875 114.797 18.0938C114.651 18 114.484 17.8958 114.297 17.7812C114.109 17.6667 113.938 17.5208 113.781 17.3438C113.635 17.1667 113.562 16.9115 113.562 16.5781C113.562 16.3385 113.625 16.099 113.75 15.8594C113.885 15.6198 114.078 15.401 114.328 15.2031C114.943 14.7448 115.578 14.3333 116.234 13.9688C116.901 13.6042 117.562 13.2969 118.219 13.0469C118.885 12.7969 119.542 12.6042 120.188 12.4688C120.833 12.3333 121.453 12.2656 122.047 12.2656C123.047 12.2656 123.984 12.4531 124.859 12.8281C125.745 13.1927 126.51 13.6979 127.156 14.3438C127.812 14.9792 128.328 15.7292 128.703 16.5938C129.089 17.4479 129.281 18.3646 129.281 19.3438C129.281 20.3021 129.078 21.2135 128.672 22.0781C128.276 22.9323 127.74 23.6823 127.062 24.3281C126.385 24.974 125.589 25.4844 124.672 25.8594C123.766 26.2448 122.807 26.4375 121.797 26.4375C120.807 26.4375 119.891 26.2708 119.047 25.9375C118.203 25.6042 117.474 25.1458 116.859 24.5625C116.245 23.9688 115.766 23.2708 115.422 22.4688C115.078 21.6562 114.906 20.7708 114.906 19.8125ZM122.141 23.625C122.578 23.625 123.031 23.5365 123.5 23.3594C123.969 23.1823 124.396 22.9271 124.781 22.5938C125.177 22.25 125.5 21.8333 125.75 21.3438C126.01 20.8542 126.141 20.3021 126.141 19.6875C126.141 19.0625 126.026 18.4792 125.797 17.9375C125.568 17.3958 125.25 16.9271 124.844 16.5312C124.448 16.125 123.974 15.8073 123.422 15.5781C122.88 15.349 122.292 15.2344 121.656 15.2344C120.5 15.2344 119.615 15.5365 119 16.1406C118.385 16.7344 118.078 17.651 118.078 18.8906C118.078 19.5677 118.177 20.1979 118.375 20.7812C118.583 21.3542 118.87 21.8542 119.234 22.2812C119.599 22.6979 120.026 23.026 120.516 23.2656C121.016 23.5052 121.557 23.625 122.141 23.625ZM130.484 7.20312C130.484 6.66146 130.641 6.27604 130.953 6.04688C131.266 5.81771 131.781 5.70312 132.5 5.70312C132.75 5.70312 132.969 5.72917 133.156 5.78125C133.344 5.83333 133.5 5.92188 133.625 6.04688C133.75 6.16146 133.849 6.32292 133.922 6.53125C134.005 6.72917 134.073 6.98438 134.125 7.29688C134.26 8.22396 134.396 9.19792 134.531 10.2188C134.677 11.2292 134.812 12.2396 134.938 13.25C135.073 14.25 135.198 15.2292 135.312 16.1875C135.427 17.1354 135.526 18.0208 135.609 18.8438C135.703 19.6562 135.771 20.3802 135.812 21.0156C135.865 21.6406 135.891 22.1354 135.891 22.5C135.891 22.875 135.854 23.1927 135.781 23.4531C135.719 23.7135 135.604 23.9219 135.438 24.0781C135.281 24.2344 135.073 24.349 134.812 24.4219C134.562 24.4844 134.25 24.5156 133.875 24.5156C133.51 24.5156 133.219 24.4219 133 24.2344C132.792 24.0469 132.688 23.7604 132.688 23.375C132.688 22.9792 132.656 22.4531 132.594 21.7969C132.531 21.1302 132.448 20.3906 132.344 19.5781C132.24 18.7656 132.12 17.901 131.984 16.9844C131.859 16.0677 131.724 15.1615 131.578 14.2656C131.443 13.3698 131.307 12.5104 131.172 11.6875C131.047 10.8542 130.932 10.1198 130.828 9.48438C130.724 8.83854 130.641 8.3125 130.578 7.90625C130.516 7.48958 130.484 7.25521 130.484 7.20312ZM146.75 12.9375C146.781 12.6458 146.818 12.4062 146.859 12.2188C146.911 12.0208 146.984 11.8646 147.078 11.75C147.182 11.625 147.312 11.5365 147.469 11.4844C147.625 11.4323 147.823 11.4062 148.062 11.4062C148.823 11.4062 149.38 11.5208 149.734 11.75C150.099 11.9688 150.281 12.3229 150.281 12.8125C150.281 12.9062 150.26 13.1146 150.219 13.4375C150.188 13.75 150.141 14.1406 150.078 14.6094C150.016 15.0677 149.943 15.5781 149.859 16.1406C149.786 16.6927 149.714 17.2552 149.641 17.8281C149.453 19.1615 149.24 20.6562 149 22.3125C148.854 23.2917 148.562 23.9948 148.125 24.4219C147.698 24.849 147.062 25.0625 146.219 25.0625C145.583 25.0625 144.927 24.901 144.25 24.5781C143.573 24.2552 142.917 23.8177 142.281 23.2656C141.646 22.7135 141.042 22.0729 140.469 21.3438C139.906 20.6042 139.411 19.8229 138.984 19C138.557 18.1667 138.219 17.3177 137.969 16.4531C137.729 15.5885 137.609 14.7448 137.609 13.9219C137.609 12.9948 137.74 12.3021 138 11.8438C138.271 11.375 138.734 11.1406 139.391 11.1406C139.849 11.1406 140.229 11.1719 140.531 11.2344C140.833 11.2865 141.073 11.3854 141.25 11.5312C141.438 11.6667 141.568 11.849 141.641 12.0781C141.724 12.3073 141.766 12.5938 141.766 12.9375C141.766 13.1667 141.755 13.3958 141.734 13.625C141.714 13.8542 141.703 14.0833 141.703 14.3125C141.703 14.8438 141.755 15.401 141.859 15.9844C141.974 16.5573 142.125 17.1198 142.312 17.6719C142.5 18.224 142.719 18.75 142.969 19.25C143.219 19.7396 143.484 20.1719 143.766 20.5469C144.047 20.9219 144.328 21.2188 144.609 21.4375C144.901 21.6562 145.182 21.7656 145.453 21.7656C145.641 21.7656 145.781 21.7031 145.875 21.5781C145.979 21.4531 146.047 21.2396 146.078 20.9375L146.75 12.9375ZM165.812 21.5781C166.115 21.3177 166.411 21.1875 166.703 21.1875C166.87 21.1875 167.021 21.2292 167.156 21.3125C167.292 21.3958 167.443 21.526 167.609 21.7031C167.766 21.9427 167.875 22.1406 167.938 22.2969C168.01 22.4427 168.047 22.5885 168.047 22.7344C168.047 23.0469 167.891 23.3438 167.578 23.625C167.078 24.0417 166.536 24.4167 165.953 24.75C165.37 25.0729 164.76 25.349 164.125 25.5781C163.49 25.8073 162.833 25.9792 162.156 26.0938C161.479 26.2188 160.807 26.2812 160.141 26.2812C159.297 26.2812 158.505 26.1719 157.766 25.9531C157.026 25.7448 156.365 25.4427 155.781 25.0469C155.208 24.651 154.724 24.1771 154.328 23.625C153.932 23.0625 153.651 22.4323 153.484 21.7344C153.391 21.4427 153.302 21.2552 153.219 21.1719C153.146 21.0781 153.021 21.0312 152.844 21.0312C152.458 21.0312 152.161 20.9375 151.953 20.75C151.745 20.5625 151.641 20.2917 151.641 19.9375C151.641 19.7917 151.651 19.6979 151.672 19.6562L151.703 19.3438C151.755 18.9688 151.854 18.6979 152 18.5312C152.156 18.3646 152.396 18.2812 152.719 18.2812H152.953C153.391 18.2812 153.698 18.0781 153.875 17.6719C154.198 16.9531 154.609 16.2969 155.109 15.7031C155.609 15.1094 156.172 14.6042 156.797 14.1875C157.422 13.7604 158.089 13.4323 158.797 13.2031C159.516 12.9635 160.245 12.8438 160.984 12.8438C161.755 12.8438 162.474 12.9583 163.141 13.1875C163.818 13.4062 164.406 13.7135 164.906 14.1094C165.406 14.5052 165.797 14.9688 166.078 15.5C166.37 16.0312 166.516 16.6042 166.516 17.2188C166.516 17.6458 166.432 18.0365 166.266 18.3906C166.099 18.7448 165.859 19.0573 165.547 19.3281C165.234 19.5885 164.854 19.8021 164.406 19.9688C163.969 20.1354 163.469 20.2448 162.906 20.2969L157.484 20.8438C157.276 20.8438 157.104 20.8958 156.969 21C156.844 21.1042 156.781 21.2448 156.781 21.4219C156.781 21.6927 156.88 21.9531 157.078 22.2031C157.286 22.4531 157.557 22.6771 157.891 22.875C158.234 23.0625 158.625 23.2135 159.062 23.3281C159.51 23.4427 159.969 23.5 160.438 23.5C160.885 23.5 161.344 23.4583 161.812 23.375C162.292 23.2812 162.76 23.151 163.219 22.9844C163.688 22.8177 164.141 22.6198 164.578 22.3906C165.016 22.151 165.427 21.8802 165.812 21.5781ZM162.328 17.5469C162.484 17.5156 162.62 17.4427 162.734 17.3281C162.849 17.2031 162.906 17.0521 162.906 16.875C162.906 16.7188 162.849 16.5729 162.734 16.4375C162.62 16.3021 162.464 16.1823 162.266 16.0781C162.068 15.9635 161.839 15.875 161.578 15.8125C161.318 15.75 161.042 15.7188 160.75 15.7188C160.323 15.7188 159.885 15.7812 159.438 15.9062C158.99 16.0312 158.583 16.1979 158.219 16.4062C157.854 16.6042 157.557 16.8281 157.328 17.0781C157.099 17.3177 156.984 17.5573 156.984 17.7969C156.984 18.0365 157.13 18.1562 157.422 18.1562C157.599 18.1562 157.885 18.1354 158.281 18.0938C158.677 18.0521 159.115 18.0052 159.594 17.9531C160.073 17.8906 160.557 17.8229 161.047 17.75C161.536 17.6771 161.964 17.6094 162.328 17.5469ZM173 24.7188C172.698 24.7188 172.411 24.6719 172.141 24.5781C171.88 24.4844 171.651 24.3594 171.453 24.2031C171.255 24.0365 171.099 23.8438 170.984 23.625C170.88 23.4062 170.828 23.1719 170.828 22.9219C170.828 22.4844 171 22.1302 171.344 21.8594C171.698 21.5885 172.161 21.4531 172.734 21.4531C173.005 21.4531 173.266 21.5052 173.516 21.6094C173.776 21.7031 174 21.8333 174.188 22C174.385 22.1667 174.542 22.3594 174.656 22.5781C174.771 22.7969 174.828 23.026 174.828 23.2656C174.828 23.724 174.661 24.0833 174.328 24.3438C174.005 24.5938 173.562 24.7188 173 24.7188Z" fill="#E9E9E9"/>
<path d="M38.125 8H48V30H28V8.83L38.125 18.83V8ZM40.125 28H46V26.667H42.85V24.667H46V23.333H42.85V21.333H46V20H42.85V18H46V16.667H42.85V14.667H46V13.333H42.85V11.333H46V10H40.125V28ZM38.125 28V21.64L30 13.615V28H38.125Z" fill="#0288D1"/>
<path d="M2.13867 40.9531C2.1582 40.9961 2.16992 41.0762 2.17383 41.1934C2.17773 41.3066 2.17969 41.4531 2.17969 41.6328C2.17969 42.1641 2.1582 42.6035 2.11523 42.9512C2.07617 43.2988 2.01953 43.5742 1.94531 43.7773C1.875 43.9805 1.78906 44.123 1.6875 44.2051C1.58984 44.2832 1.48438 44.3223 1.37109 44.3223C1.32422 44.3223 1.27539 44.3184 1.22461 44.3105C1.17383 44.2988 1.125 44.2832 1.07812 44.2637C1.03516 44.2402 1 44.2109 0.972656 44.1758C0.945312 44.1367 0.931641 44.0898 0.931641 44.0352C0.931641 43.9141 0.941406 43.7188 0.960938 43.4492C0.980469 43.1758 0.990234 42.8516 0.990234 42.4766C0.990234 42.2812 0.984375 42.1113 0.972656 41.9668C0.964844 41.8184 0.955078 41.6895 0.943359 41.5801C0.935547 41.4707 0.925781 41.377 0.914062 41.2988C0.90625 41.2207 0.902344 41.1523 0.902344 41.0938C0.902344 40.957 0.966797 40.8652 1.0957 40.8184C1.22461 40.7715 1.38477 40.748 1.57617 40.748C1.70117 40.748 1.81836 40.7637 1.92773 40.7949C2.03711 40.8262 2.10742 40.8789 2.13867 40.9531ZM4.06641 40.9531C4.08594 40.9961 4.09766 41.0762 4.10156 41.1934C4.10547 41.3066 4.10742 41.4531 4.10742 41.6328C4.10742 42.1641 4.08594 42.6035 4.04297 42.9512C4.00391 43.2988 3.94727 43.5742 3.87305 43.7773C3.80273 43.9805 3.7168 44.123 3.61523 44.2051C3.51758 44.2832 3.41211 44.3223 3.29883 44.3223C3.25195 44.3223 3.20312 44.3184 3.15234 44.3105C3.10156 44.2988 3.05273 44.2832 3.00586 44.2637C2.96289 44.2402 2.92773 44.2109 2.90039 44.1758C2.87305 44.1367 2.85938 44.0898 2.85938 44.0352C2.85938 43.9141 2.86914 43.7188 2.88867 43.4492C2.9082 43.1758 2.91797 42.8516 2.91797 42.4766C2.91797 42.2812 2.91211 42.1113 2.90039 41.9668C2.89258 41.8184 2.88281 41.6895 2.87109 41.5801C2.86328 41.4707 2.85352 41.377 2.8418 41.2988C2.83398 41.2207 2.83008 41.1523 2.83008 41.0938C2.83008 40.957 2.89453 40.8652 3.02344 40.8184C3.15234 40.7715 3.3125 40.748 3.50391 40.748C3.62891 40.748 3.74609 40.7637 3.85547 40.7949C3.96484 40.8262 4.03516 40.8789 4.06641 40.9531ZM11.1504 43.8066C11.1035 43.8066 11.0625 43.8438 11.0273 43.918C10.8789 44.207 10.7207 44.4688 10.5527 44.7031C10.3887 44.9375 10.2227 45.1367 10.0547 45.3008C9.88672 45.4648 9.7207 45.5918 9.55664 45.6816C9.39258 45.7676 9.23828 45.8105 9.09375 45.8105C8.95312 45.8105 8.82227 45.7812 8.70117 45.7227C8.58398 45.6602 8.45508 45.5449 8.31445 45.377C8.17773 45.209 8.01953 44.9766 7.83984 44.6797C7.66406 44.3828 7.44727 43.9961 7.18945 43.5195C7.14648 43.4414 7.10156 43.3848 7.05469 43.3496C7.01172 43.3105 6.97266 43.291 6.9375 43.291C6.88672 43.291 6.83984 43.3457 6.79688 43.4551C6.75391 43.5605 6.7168 43.7109 6.68555 43.9062C6.6543 44.0977 6.62891 44.3301 6.60938 44.6035C6.59375 44.873 6.58594 45.1719 6.58594 45.5C6.58594 45.6953 6.5957 45.8906 6.61523 46.0859C6.63867 46.2812 6.65039 46.4824 6.65039 46.6895C6.65039 46.7598 6.63086 46.8262 6.5918 46.8887C6.55273 46.9473 6.5 46.998 6.43359 47.041C6.37109 47.0879 6.29492 47.125 6.20508 47.1523C6.11914 47.1797 6.02734 47.1934 5.92969 47.1934C5.73438 47.1934 5.59375 47.0762 5.50781 46.8418C5.42188 46.6074 5.37891 46.2324 5.37891 45.7168C5.37891 45.0645 5.41406 44.4727 5.48438 43.9414C5.55859 43.4062 5.66211 42.9492 5.79492 42.5703C5.93164 42.1875 6.0918 41.8926 6.27539 41.6855C6.46289 41.4746 6.67188 41.3691 6.90234 41.3691C7.10547 41.3691 7.29883 41.4863 7.48242 41.7207C7.66992 41.9512 7.87109 42.3262 8.08594 42.8457C8.17188 43.0566 8.26367 43.2539 8.36133 43.4375C8.46289 43.6211 8.5625 43.7812 8.66016 43.918C8.76172 44.0508 8.85938 44.1562 8.95312 44.2344C9.04688 44.3086 9.13086 44.3457 9.20508 44.3457C9.2793 44.3457 9.34961 44.3301 9.41602 44.2988C9.48633 44.2637 9.56445 44.1914 9.65039 44.082C9.74023 43.9688 9.84375 43.8047 9.96094 43.5898C10.082 43.375 10.2305 43.0879 10.4062 42.7285C10.5 42.541 10.584 42.3848 10.6582 42.2598C10.7324 42.1348 10.8066 42.0352 10.8809 41.9609C10.9551 41.8828 11.0332 41.8281 11.1152 41.7969C11.1973 41.7617 11.2891 41.7441 11.3906 41.7441C11.5117 41.7441 11.6309 41.8086 11.748 41.9375C11.8652 42.0664 11.9785 42.2383 12.0879 42.4531C12.2012 42.668 12.3105 42.918 12.416 43.2031C12.5215 43.4883 12.623 43.7871 12.7207 44.0996C12.8223 44.4121 12.9199 44.7305 13.0137 45.0547C13.1113 45.375 13.2051 45.6797 13.2949 45.9688C13.3184 46.0547 13.334 46.1152 13.3418 46.1504C13.3535 46.1816 13.3594 46.2207 13.3594 46.2676C13.3594 46.334 13.3379 46.4004 13.2949 46.4668C13.2559 46.5293 13.2031 46.5859 13.1367 46.6367C13.0703 46.6875 12.9941 46.7285 12.9082 46.7598C12.8262 46.791 12.7441 46.8066 12.6621 46.8066C12.5527 46.8066 12.4668 46.7949 12.4043 46.7715C12.3457 46.7441 12.2988 46.6973 12.2637 46.6309C12.2441 46.5957 12.2109 46.502 12.1641 46.3496C12.1172 46.1973 12.0605 46.0176 11.9941 45.8105C11.9316 45.5996 11.8613 45.377 11.7832 45.1426C11.709 44.9082 11.6328 44.6934 11.5547 44.498C11.4805 44.2988 11.4082 44.1348 11.3379 44.0059C11.2676 43.873 11.2051 43.8066 11.1504 43.8066ZM17.4785 41.8789C17.6934 41.8789 17.9004 41.9121 18.0996 41.9785C18.2988 42.0449 18.4746 42.1367 18.627 42.2539C18.7793 42.3711 18.9004 42.5117 18.9902 42.6758C19.084 42.8398 19.1309 43.0215 19.1309 43.2207C19.1309 43.3027 19.1113 43.3828 19.0723 43.4609C19.0371 43.5352 18.9883 43.6016 18.9258 43.6602C18.8633 43.7148 18.791 43.7598 18.709 43.7949C18.6309 43.8262 18.5488 43.8418 18.4629 43.8418C18.4551 43.8418 18.4473 43.8438 18.4395 43.8477C18.4355 43.8477 18.4297 43.8477 18.4219 43.8477C18.4141 43.8516 18.4062 43.8535 18.3984 43.8535L18.4219 44.3223C18.4375 44.8809 18.5156 45.2891 18.6562 45.5469C18.8008 45.8047 18.9883 45.9336 19.2188 45.9336C19.3008 45.9336 19.373 45.9258 19.4355 45.9102C19.502 45.8945 19.5625 45.877 19.6172 45.8574C19.6758 45.834 19.7305 45.8145 19.7812 45.7988C19.832 45.7832 19.8828 45.7754 19.9336 45.7754C20.0234 45.7754 20.1016 45.8145 20.168 45.8926C20.2383 45.9707 20.2734 46.0645 20.2734 46.1738C20.2734 46.2832 20.2305 46.3926 20.1445 46.502C20.0625 46.6113 19.9531 46.7109 19.8164 46.8008C19.6797 46.8867 19.5254 46.957 19.3535 47.0117C19.1816 47.0664 19.0078 47.0938 18.832 47.0938C18.5273 47.0938 18.2598 46.9688 18.0293 46.7188C17.7988 46.4648 17.6348 46.0938 17.5371 45.6055C17.5137 45.5273 17.4824 45.4883 17.4434 45.4883C17.3965 45.4883 17.3555 45.5117 17.3203 45.5586C16.9336 46.0469 16.5215 46.4141 16.084 46.6602C15.6465 46.9023 15.2148 47.0234 14.7891 47.0234C14.5898 47.0234 14.4102 46.9941 14.25 46.9355C14.0898 46.877 13.9531 46.7949 13.8398 46.6895C13.7305 46.5801 13.6445 46.4492 13.582 46.2969C13.5234 46.1406 13.4941 45.9668 13.4941 45.7754C13.4941 45.5059 13.5527 45.2227 13.6699 44.9258C13.791 44.6289 13.9531 44.3359 14.1562 44.0469C14.3594 43.7578 14.5938 43.4824 14.8594 43.2207C15.1289 42.959 15.4102 42.7285 15.7031 42.5293C16 42.3301 16.3008 42.1719 16.6055 42.0547C16.9102 41.9375 17.2012 41.8789 17.4785 41.8789ZM17.2852 43.9062C17.3555 43.7734 17.4199 43.6777 17.4785 43.6191C17.5371 43.5566 17.6211 43.5156 17.7305 43.4961C17.8164 43.4844 17.8594 43.457 17.8594 43.4141C17.8594 43.3828 17.8477 43.3496 17.8242 43.3145C17.75 43.2129 17.6719 43.125 17.5898 43.0508C17.5078 42.9727 17.3984 42.9336 17.2617 42.9336C17.1133 42.9336 16.9473 42.9766 16.7637 43.0625C16.5801 43.1484 16.3926 43.2637 16.2012 43.4082C16.0137 43.5488 15.8281 43.7109 15.6445 43.8945C15.4648 44.0742 15.3047 44.2598 15.1641 44.4512C15.0234 44.6426 14.9102 44.832 14.8242 45.0195C14.7383 45.207 14.6953 45.375 14.6953 45.5234C14.6953 45.6562 14.7305 45.7598 14.8008 45.834C14.875 45.9082 14.9746 45.9453 15.0996 45.9453C15.4199 45.9453 15.7695 45.7754 16.1484 45.4355C16.5273 45.0957 16.9062 44.5859 17.2852 43.9062ZM20.5664 42.2715C20.5664 42.2129 20.5918 42.1562 20.6426 42.1016C20.6934 42.043 20.7598 41.9922 20.8418 41.9492C20.9238 41.9023 21.0156 41.8652 21.1172 41.8379C21.2227 41.8066 21.3281 41.791 21.4336 41.791C21.4922 41.791 21.541 41.8066 21.5801 41.8379C21.623 41.8691 21.6602 41.9297 21.6914 42.0195C21.7227 42.1055 21.75 42.2285 21.7734 42.3887C21.8008 42.5449 21.8262 42.75 21.8496 43.0039C21.8652 43.082 21.8789 43.1426 21.8906 43.1855C21.9062 43.2246 21.9258 43.2441 21.9492 43.2441C21.9844 43.2441 22.0195 43.1836 22.0547 43.0625C22.3398 42.2383 22.752 41.8262 23.291 41.8262C23.541 41.8262 23.7676 41.9043 23.9707 42.0605C24.1777 42.2168 24.3691 42.4727 24.5449 42.8281C24.7246 43.1797 24.8945 43.6445 25.0547 44.2227C25.2148 44.7969 25.375 45.5059 25.5352 46.3496C25.543 46.3926 25.5488 46.4316 25.5527 46.4668C25.5566 46.502 25.5586 46.5352 25.5586 46.5664C25.5586 46.6562 25.5371 46.7344 25.4941 46.8008C25.4551 46.8633 25.4023 46.916 25.3359 46.959C25.2695 46.998 25.1953 47.0273 25.1133 47.0469C25.0312 47.0703 24.9492 47.082 24.8672 47.082C24.7031 47.082 24.584 47.0645 24.5098 47.0293C24.4395 46.9941 24.3945 46.9277 24.375 46.8301C24.2617 46.2363 24.1504 45.709 24.041 45.248C23.9355 44.7871 23.8301 44.4004 23.7246 44.0879C23.623 43.7715 23.5215 43.5312 23.4199 43.3672C23.3184 43.2031 23.2168 43.1211 23.1152 43.1211C23.0137 43.1211 22.918 43.1855 22.8281 43.3145C22.7422 43.4395 22.6582 43.6367 22.5762 43.9062C22.4941 44.1758 22.4141 44.5176 22.3359 44.9316C22.2617 45.3457 22.1895 45.8398 22.1191 46.4141C22.0996 46.5703 22.0215 46.6953 21.8848 46.7891C21.748 46.8828 21.5742 46.9297 21.3633 46.9297C21.2227 46.9297 21.1152 46.9004 21.041 46.8418C20.9668 46.7832 20.9258 46.7031 20.918 46.6016C20.8828 45.7891 20.8438 45.1211 20.8008 44.5977C20.7617 44.0703 20.7246 43.6484 20.6895 43.332C20.6543 43.0117 20.625 42.7734 20.6016 42.6172C20.5781 42.4609 20.5664 42.3457 20.5664 42.2715ZM27.4043 44.9258C27.4043 45.4492 27.4844 45.8535 27.6445 46.1387C27.8047 46.4238 28.0371 46.5664 28.3418 46.5664C28.5332 46.5664 28.709 46.5098 28.8691 46.3965C29.0332 46.2832 29.1738 46.125 29.291 45.9219C29.4082 45.7188 29.498 45.4785 29.5605 45.2012C29.627 44.9199 29.6602 44.6152 29.6602 44.2871C29.6602 44.0879 29.6523 43.916 29.6367 43.7715C29.6211 43.623 29.6035 43.4922 29.584 43.3789C29.5684 43.2617 29.5527 43.1582 29.5371 43.0684C29.5215 42.9785 29.5137 42.8926 29.5137 42.8105C29.5137 42.6855 29.5664 42.5957 29.6719 42.541C29.7773 42.4824 29.9453 42.4531 30.1758 42.4531C30.4688 42.4531 30.6953 42.5195 30.8555 42.6523C31.0195 42.7852 31.1016 42.9785 31.1016 43.2324C31.1016 43.9238 31.0332 44.5449 30.8965 45.0957C30.7637 45.6465 30.5703 46.1152 30.3164 46.502C30.0664 46.8848 29.7617 47.1797 29.4023 47.3867C29.043 47.5938 28.6406 47.6973 28.1953 47.6973C27.8789 47.6973 27.5859 47.6309 27.3164 47.498C27.0508 47.3691 26.8203 47.1875 26.625 46.9531C26.4336 46.7148 26.2832 46.4336 26.1738 46.1094C26.0645 45.7812 26.0098 45.4219 26.0098 45.0312C26.0098 44.8828 26.0137 44.7246 26.0215 44.5566C26.0293 44.3887 26.041 44.209 26.0566 44.0176C26.0723 43.8223 26.0918 43.6113 26.1152 43.3848C26.1426 43.1582 26.1719 42.9121 26.2031 42.6465C26.2148 42.5332 26.2676 42.4434 26.3613 42.377C26.459 42.3066 26.582 42.2715 26.7305 42.2715C26.8633 42.2715 26.9883 42.2852 27.1055 42.3125C27.2227 42.3398 27.3223 42.377 27.4043 42.4238C27.4902 42.4707 27.5566 42.5254 27.6035 42.5879C27.6543 42.6504 27.6797 42.7168 27.6797 42.7871C27.6797 42.8574 27.6641 42.9688 27.6328 43.1211C27.6055 43.2695 27.5742 43.4414 27.5391 43.6367C27.5078 43.8281 27.4766 44.0371 27.4453 44.2637C27.418 44.4863 27.4043 44.707 27.4043 44.9258ZM35.4902 41.8789C35.7051 41.8789 35.9121 41.9121 36.1113 41.9785C36.3105 42.0449 36.4863 42.1367 36.6387 42.2539C36.791 42.3711 36.9121 42.5117 37.002 42.6758C37.0957 42.8398 37.1426 43.0215 37.1426 43.2207C37.1426 43.3027 37.123 43.3828 37.084 43.4609C37.0488 43.5352 37 43.6016 36.9375 43.6602C36.875 43.7148 36.8027 43.7598 36.7207 43.7949C36.6426 43.8262 36.5605 43.8418 36.4746 43.8418C36.4668 43.8418 36.459 43.8438 36.4512 43.8477C36.4473 43.8477 36.4414 43.8477 36.4336 43.8477C36.4258 43.8516 36.418 43.8535 36.4102 43.8535L36.4336 44.3223C36.4492 44.8809 36.5273 45.2891 36.668 45.5469C36.8125 45.8047 37 45.9336 37.2305 45.9336C37.3125 45.9336 37.3848 45.9258 37.4473 45.9102C37.5137 45.8945 37.5742 45.877 37.6289 45.8574C37.6875 45.834 37.7422 45.8145 37.793 45.7988C37.8438 45.7832 37.8945 45.7754 37.9453 45.7754C38.0352 45.7754 38.1133 45.8145 38.1797 45.8926C38.25 45.9707 38.2852 46.0645 38.2852 46.1738C38.2852 46.2832 38.2422 46.3926 38.1562 46.502C38.0742 46.6113 37.9648 46.7109 37.8281 46.8008C37.6914 46.8867 37.5371 46.957 37.3652 47.0117C37.1934 47.0664 37.0195 47.0938 36.8438 47.0938C36.5391 47.0938 36.2715 46.9688 36.041 46.7188C35.8105 46.4648 35.6465 46.0938 35.5488 45.6055C35.5254 45.5273 35.4941 45.4883 35.4551 45.4883C35.4082 45.4883 35.3672 45.5117 35.332 45.5586C34.9453 46.0469 34.5332 46.4141 34.0957 46.6602C33.6582 46.9023 33.2266 47.0234 32.8008 47.0234C32.6016 47.0234 32.4219 46.9941 32.2617 46.9355C32.1016 46.877 31.9648 46.7949 31.8516 46.6895C31.7422 46.5801 31.6562 46.4492 31.5938 46.2969C31.5352 46.1406 31.5059 45.9668 31.5059 45.7754C31.5059 45.5059 31.5645 45.2227 31.6816 44.9258C31.8027 44.6289 31.9648 44.3359 32.168 44.0469C32.3711 43.7578 32.6055 43.4824 32.8711 43.2207C33.1406 42.959 33.4219 42.7285 33.7148 42.5293C34.0117 42.3301 34.3125 42.1719 34.6172 42.0547C34.9219 41.9375 35.2129 41.8789 35.4902 41.8789ZM35.2969 43.9062C35.3672 43.7734 35.4316 43.6777 35.4902 43.6191C35.5488 43.5566 35.6328 43.5156 35.7422 43.4961C35.8281 43.4844 35.8711 43.457 35.8711 43.4141C35.8711 43.3828 35.8594 43.3496 35.8359 43.3145C35.7617 43.2129 35.6836 43.125 35.6016 43.0508C35.5195 42.9727 35.4102 42.9336 35.2734 42.9336C35.125 42.9336 34.959 42.9766 34.7754 43.0625C34.5918 43.1484 34.4043 43.2637 34.2129 43.4082C34.0254 43.5488 33.8398 43.7109 33.6562 43.8945C33.4766 44.0742 33.3164 44.2598 33.1758 44.4512C33.0352 44.6426 32.9219 44.832 32.8359 45.0195C32.75 45.207 32.707 45.375 32.707 45.5234C32.707 45.6562 32.7422 45.7598 32.8125 45.834C32.8867 45.9082 32.9863 45.9453 33.1113 45.9453C33.4316 45.9453 33.7812 45.7754 34.1602 45.4355C34.5391 45.0957 34.918 44.5859 35.2969 43.9062ZM38.1621 40.3262C38.1621 40.123 38.2207 39.9785 38.3379 39.8926C38.4551 39.8066 38.6484 39.7637 38.918 39.7637C39.0117 39.7637 39.0938 39.7734 39.1641 39.793C39.2344 39.8125 39.293 39.8457 39.3398 39.8926C39.3867 39.9355 39.4238 39.9961 39.4512 40.0742C39.4824 40.1484 39.5078 40.2441 39.5273 40.3613C39.5781 40.709 39.6289 41.0742 39.6797 41.457C39.7344 41.8359 39.7852 42.2148 39.832 42.5938C39.8828 42.9688 39.9297 43.3359 39.9727 43.6953C40.0156 44.0508 40.0527 44.3828 40.084 44.6914C40.1191 44.9961 40.1445 45.2676 40.1602 45.5059C40.1797 45.7402 40.1895 45.9258 40.1895 46.0625C40.1895 46.2031 40.1758 46.3223 40.1484 46.4199C40.125 46.5176 40.082 46.5957 40.0195 46.6543C39.9609 46.7129 39.8828 46.7559 39.7852 46.7832C39.6914 46.8066 39.5742 46.8184 39.4336 46.8184C39.2969 46.8184 39.1875 46.7832 39.1055 46.7129C39.0273 46.6426 38.9883 46.5352 38.9883 46.3906C38.9883 46.2422 38.9766 46.0449 38.9531 45.7988C38.9297 45.5488 38.8984 45.2715 38.8594 44.9668C38.8203 44.6621 38.7754 44.3379 38.7246 43.9941C38.6777 43.6504 38.627 43.3105 38.5723 42.9746C38.5215 42.6387 38.4707 42.3164 38.4199 42.0078C38.373 41.6953 38.3301 41.4199 38.291 41.1816C38.252 40.9395 38.2207 40.7422 38.1973 40.5898C38.1738 40.4336 38.1621 40.3457 38.1621 40.3262ZM41.2793 44.9492C41.1699 44.9492 41.0801 44.9043 41.0098 44.8145C40.9395 44.7207 40.9043 44.5859 40.9043 44.4102C40.9043 44.2539 40.9746 44.1367 41.1152 44.0586C41.2559 43.9805 41.4941 43.9258 41.8301 43.8945C41.9395 43.8828 42.082 43.8672 42.2578 43.8477C42.4375 43.8242 42.6191 43.8027 42.8027 43.7832C42.9902 43.7598 43.166 43.7402 43.3301 43.7246C43.498 43.709 43.6289 43.7012 43.7227 43.7012C43.8672 43.7012 43.9785 43.7441 44.0566 43.8301C44.1387 43.916 44.1797 44.0684 44.1797 44.2871C44.1797 44.5137 43.9551 44.6504 43.5059 44.6973C43.4473 44.7051 43.3594 44.7168 43.2422 44.7324C43.1289 44.7441 43 44.7598 42.8555 44.7793C42.7109 44.7988 42.5586 44.8184 42.3984 44.8379C42.2422 44.8574 42.0918 44.875 41.9473 44.8906C41.8027 44.9062 41.6699 44.9199 41.5488 44.9316C41.4316 44.9434 41.3418 44.9492 41.2793 44.9492ZM46.3594 41.9141C46.6211 41.9141 46.8906 41.9492 47.168 42.0195C47.4453 42.0859 47.6992 42.1738 47.9297 42.2832C48.1602 42.3887 48.3496 42.5078 48.498 42.6406C48.6465 42.7734 48.7207 42.9023 48.7207 43.0273C48.7207 43.0898 48.6934 43.1602 48.6387 43.2383C48.584 43.3125 48.5176 43.3848 48.4395 43.4551C48.3613 43.5215 48.2754 43.5781 48.1816 43.625C48.0918 43.668 48.0117 43.6895 47.9414 43.6895C47.8477 43.6895 47.7422 43.6504 47.625 43.5723C47.5117 43.4941 47.3848 43.4082 47.2441 43.3145C47.1074 43.2168 46.957 43.1289 46.793 43.0508C46.6289 42.9727 46.4512 42.9336 46.2598 42.9336C46.1348 42.9336 46.0312 42.9648 45.9492 43.0273C45.8711 43.0859 45.832 43.1699 45.832 43.2793C45.832 43.377 45.8789 43.4766 45.9727 43.5781C46.0664 43.6758 46.1895 43.7773 46.3418 43.8828C46.498 43.9883 46.6738 44.0996 46.8691 44.2168C47.0645 44.334 47.2637 44.459 47.4668 44.5918C47.6738 44.7246 47.875 44.8691 48.0703 45.0254C48.2656 45.1816 48.4395 45.3516 48.5918 45.5352C48.748 45.7188 48.873 45.9199 48.9668 46.1387C49.0605 46.3535 49.1074 46.5879 49.1074 46.8418C49.1074 47.0605 49.0684 47.2598 48.9902 47.4395C48.9121 47.6191 48.8008 47.7734 48.6562 47.9023C48.5117 48.0312 48.3398 48.1309 48.1406 48.2012C47.9414 48.2715 47.7227 48.3066 47.4844 48.3066C47.1836 48.3066 46.9062 48.2598 46.6523 48.166C46.3984 48.0762 46.1797 47.9512 45.9961 47.791C45.8125 47.6309 45.668 47.4395 45.5625 47.2168C45.4609 46.9941 45.4102 46.75 45.4102 46.4844C45.4102 46.1406 45.4707 45.8906 45.5918 45.7344C45.7168 45.5781 45.9121 45.5 46.1777 45.5C46.3418 45.5 46.4727 45.5312 46.5703 45.5938C46.668 45.6562 46.7168 45.7324 46.7168 45.8223C46.7168 45.8691 46.709 45.918 46.6934 45.9688C46.6777 46.0156 46.6602 46.0664 46.6406 46.1211C46.625 46.1719 46.6094 46.2266 46.5938 46.2852C46.582 46.3438 46.5762 46.4023 46.5762 46.4609C46.5762 46.5625 46.5996 46.6602 46.6465 46.7539C46.6934 46.8477 46.7559 46.9297 46.834 47C46.916 47.0742 47.0098 47.1328 47.1152 47.1758C47.2207 47.2188 47.332 47.2402 47.4492 47.2402C47.7617 47.2402 47.918 47.1113 47.918 46.8535C47.918 46.6504 47.8379 46.459 47.6777 46.2793C47.5176 46.0957 47.3164 45.918 47.0742 45.7461C46.832 45.5703 46.5703 45.3945 46.2891 45.2188C46.0117 45.043 45.752 44.8594 45.5098 44.668C45.2676 44.4766 45.0664 44.2734 44.9062 44.0586C44.7461 43.8398 44.666 43.6035 44.666 43.3496C44.666 43.1387 44.709 42.9453 44.7949 42.7695C44.8848 42.5938 45.0059 42.4434 45.1582 42.3184C45.3105 42.1895 45.4883 42.0898 45.6914 42.0195C45.8984 41.9492 46.1211 41.9141 46.3594 41.9141ZM49.8633 40.2324C49.8633 40.0254 49.9219 39.8809 50.0391 39.7988C50.1562 39.7129 50.3496 39.6699 50.6191 39.6699C50.7168 39.6699 50.7988 39.6797 50.8652 39.6992C50.9355 39.7148 50.9941 39.7461 51.041 39.793C51.0918 39.8398 51.1309 39.9023 51.1582 39.9805C51.1895 40.0547 51.2148 40.1504 51.2344 40.2676C51.2812 40.6309 51.332 41.0059 51.3867 41.3926C51.4453 41.7793 51.5059 42.168 51.5684 42.5586C51.5918 42.7344 51.6836 42.8223 51.8438 42.8223C51.8867 42.8223 51.957 42.8184 52.0547 42.8105C52.1562 42.7988 52.2754 42.7871 52.4121 42.7754C52.5488 42.7598 52.6953 42.7441 52.8516 42.7285C53.0117 42.7129 53.1699 42.6992 53.3262 42.6875C53.4863 42.6719 53.6367 42.6602 53.7773 42.6523C53.9219 42.6406 54.0488 42.6348 54.1582 42.6348C54.2441 42.6348 54.3125 42.6523 54.3633 42.6875C54.4141 42.7188 54.4531 42.7617 54.4805 42.8164C54.5117 42.8672 54.5312 42.9258 54.5391 42.9922C54.5508 43.0547 54.5566 43.1191 54.5566 43.1855C54.5566 43.2441 54.5449 43.3047 54.5215 43.3672C54.502 43.4297 54.4727 43.4863 54.4336 43.5371C54.3984 43.584 54.3535 43.623 54.2988 43.6543C54.2441 43.6855 54.1816 43.7012 54.1113 43.7012C53.7715 43.7012 53.4277 43.7129 53.0801 43.7363C52.7363 43.7559 52.3926 43.7832 52.0488 43.8184C51.873 43.8418 51.7852 43.9297 51.7852 44.082C51.7852 44.0938 51.7871 44.1094 51.791 44.1289C51.7949 44.1445 51.7969 44.1582 51.7969 44.1699C51.8438 44.5098 51.8867 44.8281 51.9258 45.125C51.9688 45.4219 52.0039 45.6875 52.0312 45.9219C52.0625 46.1523 52.0859 46.3457 52.1016 46.502C52.1211 46.6543 52.1309 46.7559 52.1309 46.8066C52.1309 46.9473 52.1172 47.0645 52.0898 47.1582C52.0625 47.2559 52.0176 47.334 51.9551 47.3926C51.8926 47.4551 51.8086 47.498 51.7031 47.5215C51.6016 47.5488 51.4727 47.5625 51.3164 47.5625C51.168 47.5625 51.0586 47.5273 50.9883 47.457C50.918 47.3867 50.8789 47.2793 50.8711 47.1348C50.8477 46.6738 50.8105 46.2109 50.7598 45.7461C50.709 45.2773 50.6504 44.8105 50.584 44.3457C50.5488 44.1777 50.4609 44.0938 50.3203 44.0938C50.3086 44.0938 50.2949 44.0957 50.2793 44.0996C50.2637 44.1035 50.25 44.1055 50.2383 44.1055C49.9961 44.1602 49.7676 44.2148 49.5527 44.2695C49.3379 44.3242 49.1367 44.3828 48.9492 44.4453C48.8438 44.4805 48.75 44.5059 48.668 44.5215C48.5859 44.5332 48.5117 44.5391 48.4453 44.5391C48.3555 44.5391 48.2891 44.5 48.2461 44.4219C48.2031 44.3398 48.1816 44.2383 48.1816 44.1172C48.1816 44.0742 48.1855 44.0254 48.1934 43.9707C48.2012 43.9121 48.2168 43.8555 48.2402 43.8008C48.2598 43.7422 48.291 43.6895 48.334 43.6426C48.373 43.5918 48.4277 43.5508 48.498 43.5195C48.6621 43.4531 48.8809 43.3848 49.1543 43.3145C49.4277 43.2402 49.7363 43.1719 50.0801 43.1094C50.1582 43.0898 50.2188 43.0586 50.2617 43.0156C50.3086 42.9688 50.332 42.9004 50.332 42.8105C50.332 42.791 50.332 42.7715 50.332 42.752C50.332 42.7285 50.3281 42.7051 50.3203 42.6816C50.2578 42.3223 50.1973 41.9961 50.1387 41.7031C50.084 41.4062 50.0352 41.1523 49.9922 40.9414C49.9531 40.7305 49.9219 40.5645 49.8984 40.4434C49.875 40.3223 49.8633 40.252 49.8633 40.2324ZM56.6602 47.1582C56.4258 47.1582 56.1914 47.1016 55.957 46.9883C55.7227 46.8711 55.498 46.7129 55.2832 46.5137C55.0684 46.3145 54.8691 46.0801 54.6855 45.8105C54.502 45.5371 54.3418 45.2441 54.2051 44.9316C54.0684 44.6152 53.9609 44.2852 53.8828 43.9414C53.8047 43.5977 53.7656 43.2539 53.7656 42.9102C53.7656 42.6445 53.8203 42.4551 53.9297 42.3418C54.0391 42.2246 54.2168 42.166 54.4629 42.166C54.7715 42.166 54.9434 42.293 54.9785 42.5469C55.0488 43.0859 55.1465 43.5723 55.2715 44.0059C55.3965 44.4395 55.543 44.8086 55.7109 45.1133C55.8828 45.418 56.0723 45.6523 56.2793 45.8164C56.4902 45.9805 56.7129 46.0625 56.9473 46.0625C57.1152 46.0625 57.2734 46.0215 57.4219 45.9395C57.5703 45.8535 57.6992 45.7344 57.8086 45.582C57.8477 45.5234 57.873 45.4668 57.8848 45.4121C57.9004 45.3574 57.9121 45.2949 57.9199 45.2246C57.9395 44.9473 57.9609 44.6758 57.9844 44.4102C58.0117 44.1406 58.0371 43.8711 58.0605 43.6016C58.0684 43.4844 58.084 43.3887 58.1074 43.3145C58.1309 43.2402 58.166 43.1816 58.2129 43.1387C58.2598 43.0957 58.3203 43.0664 58.3945 43.0508C58.4727 43.0352 58.5703 43.0273 58.6875 43.0273C58.8203 43.0273 58.9336 43.0469 59.0273 43.0859C59.1211 43.1211 59.1973 43.1816 59.2559 43.2676C59.3145 43.3496 59.3555 43.459 59.3789 43.5957C59.4062 43.7285 59.4199 43.8945 59.4199 44.0938C59.4199 44.2656 59.4062 44.416 59.3789 44.5449C59.3555 44.6699 59.3262 44.7891 59.291 44.9023C59.2598 45.0117 59.2285 45.1211 59.1973 45.2305C59.1699 45.3359 59.1523 45.4531 59.1445 45.582C59.125 45.9062 59.1074 46.1875 59.0918 46.4258C59.0762 46.6602 59.0625 46.8613 59.0508 47.0293C59.043 47.1973 59.0352 47.3418 59.0273 47.4629C59.0234 47.584 59.0195 47.6914 59.0156 47.7852C59.0117 47.8828 59.0098 47.9746 59.0098 48.0605C59.0098 48.1465 59.0098 48.2402 59.0098 48.3418C59.0098 48.5254 59.0176 48.7246 59.0332 48.9395C59.0488 49.1582 59.0645 49.3672 59.0801 49.5664C59.0996 49.7656 59.1172 49.9414 59.1328 50.0938C59.1484 50.2461 59.1562 50.3516 59.1562 50.4102C59.1562 50.4844 59.1328 50.5547 59.0859 50.6211C59.0391 50.6875 58.9766 50.7461 58.8984 50.7969C58.8203 50.8477 58.7285 50.8867 58.623 50.9141C58.5176 50.9453 58.4062 50.9609 58.2891 50.9609C58.1875 50.9609 58.1055 50.9258 58.043 50.8555C57.9844 50.7891 57.9512 50.6992 57.9434 50.5859C57.9316 50.4375 57.9219 50.2559 57.9141 50.041C57.9062 49.8301 57.8984 49.6035 57.8906 49.3613C57.8828 49.123 57.877 48.8789 57.873 48.6289C57.873 48.3828 57.8711 48.1523 57.8672 47.9375C57.8633 47.7266 57.8613 47.541 57.8613 47.3809C57.8613 47.2207 57.8613 47.1055 57.8613 47.0352C57.8613 46.9648 57.8535 46.916 57.8379 46.8887C57.8223 46.8574 57.793 46.8418 57.75 46.8418C57.7266 46.8418 57.6953 46.8496 57.6562 46.8652C57.6172 46.877 57.5723 46.8984 57.5215 46.9297C57.3848 47.0117 57.2461 47.0703 57.1055 47.1055C56.9648 47.1406 56.8164 47.1582 56.6602 47.1582ZM59.8066 40.3262C59.8066 40.123 59.8652 39.9785 59.9824 39.8926C60.0996 39.8066 60.293 39.7637 60.5625 39.7637C60.6562 39.7637 60.7383 39.7734 60.8086 39.793C60.8789 39.8125 60.9375 39.8457 60.9844 39.8926C61.0312 39.9355 61.0684 39.9961 61.0957 40.0742C61.127 40.1484 61.1523 40.2441 61.1719 40.3613C61.2227 40.709 61.2734 41.0742 61.3242 41.457C61.3789 41.8359 61.4297 42.2148 61.4766 42.5938C61.5273 42.9688 61.5742 43.3359 61.6172 43.6953C61.6602 44.0508 61.6973 44.3828 61.7285 44.6914C61.7637 44.9961 61.7891 45.2676 61.8047 45.5059C61.8242 45.7402 61.834 45.9258 61.834 46.0625C61.834 46.2031 61.8203 46.3223 61.793 46.4199C61.7695 46.5176 61.7266 46.5957 61.6641 46.6543C61.6055 46.7129 61.5273 46.7559 61.4297 46.7832C61.3359 46.8066 61.2188 46.8184 61.0781 46.8184C60.9414 46.8184 60.832 46.7832 60.75 46.7129C60.6719 46.6426 60.6328 46.5352 60.6328 46.3906C60.6328 46.2422 60.6211 46.0449 60.5977 45.7988C60.5742 45.5488 60.543 45.2715 60.5039 44.9668C60.4648 44.6621 60.4199 44.3379 60.3691 43.9941C60.3223 43.6504 60.2715 43.3105 60.2168 42.9746C60.166 42.6387 60.1152 42.3164 60.0645 42.0078C60.0176 41.6953 59.9746 41.4199 59.9355 41.1816C59.8965 40.9395 59.8652 40.7422 59.8418 40.5898C59.8184 40.4336 59.8066 40.3457 59.8066 40.3262ZM67.7578 45.7168C67.8711 45.6191 67.9824 45.5703 68.0918 45.5703C68.1543 45.5703 68.2109 45.5859 68.2617 45.6172C68.3125 45.6484 68.3691 45.6973 68.4316 45.7637C68.4902 45.8535 68.5312 45.9277 68.5547 45.9863C68.582 46.041 68.5957 46.0957 68.5957 46.1504C68.5957 46.2676 68.5371 46.3789 68.4199 46.4844C68.2324 46.6406 68.0293 46.7812 67.8105 46.9062C67.5918 47.0273 67.3633 47.1309 67.125 47.2168C66.8867 47.3027 66.6406 47.3672 66.3867 47.4102C66.1328 47.457 65.8809 47.4805 65.6309 47.4805C65.3145 47.4805 65.0176 47.4395 64.7402 47.3574C64.4629 47.2793 64.2148 47.166 63.9961 47.0176C63.7812 46.8691 63.5996 46.6914 63.4512 46.4844C63.3027 46.2734 63.1973 46.0371 63.1348 45.7754C63.0996 45.666 63.0664 45.5957 63.0352 45.5645C63.0078 45.5293 62.9609 45.5117 62.8945 45.5117C62.75 45.5117 62.6387 45.4766 62.5605 45.4062C62.4824 45.3359 62.4434 45.2344 62.4434 45.1016C62.4434 45.0469 62.4473 45.0117 62.4551 44.9961L62.4668 44.8789C62.4863 44.7383 62.5234 44.6367 62.5781 44.5742C62.6367 44.5117 62.7266 44.4805 62.8477 44.4805H62.9355C63.0996 44.4805 63.2148 44.4043 63.2812 44.252C63.4023 43.9824 63.5566 43.7363 63.7441 43.5137C63.9316 43.291 64.1426 43.1016 64.377 42.9453C64.6113 42.7852 64.8613 42.6621 65.127 42.5762C65.3965 42.4863 65.6699 42.4414 65.9473 42.4414C66.2363 42.4414 66.5059 42.4844 66.7559 42.5703C67.0098 42.6523 67.2305 42.7676 67.418 42.916C67.6055 43.0645 67.752 43.2383 67.8574 43.4375C67.9668 43.6367 68.0215 43.8516 68.0215 44.082C68.0215 44.2422 67.9902 44.3887 67.9277 44.5215C67.8652 44.6543 67.7754 44.7715 67.6582 44.873C67.541 44.9707 67.3984 45.0508 67.2305 45.1133C67.0664 45.1758 66.8789 45.2168 66.668 45.2363L64.6348 45.4414C64.5566 45.4414 64.4922 45.4609 64.4414 45.5C64.3945 45.5391 64.3711 45.5918 64.3711 45.6582C64.3711 45.7598 64.4082 45.8574 64.4824 45.9512C64.5605 46.0449 64.6621 46.1289 64.7871 46.2031C64.916 46.2734 65.0625 46.3301 65.2266 46.373C65.3945 46.416 65.5664 46.4375 65.7422 46.4375C65.9102 46.4375 66.082 46.4219 66.2578 46.3906C66.4375 46.3555 66.6133 46.3066 66.7852 46.2441C66.9609 46.1816 67.1309 46.1074 67.2949 46.0215C67.459 45.9316 67.6133 45.8301 67.7578 45.7168ZM66.4512 44.2051C66.5098 44.1934 66.5605 44.166 66.6035 44.123C66.6465 44.0762 66.668 44.0195 66.668 43.9531C66.668 43.8945 66.6465 43.8398 66.6035 43.7891C66.5605 43.7383 66.502 43.6934 66.4277 43.6543C66.3535 43.6113 66.2676 43.5781 66.1699 43.5547C66.0723 43.5312 65.9688 43.5195 65.8594 43.5195C65.6992 43.5195 65.5352 43.543 65.3672 43.5898C65.1992 43.6367 65.0469 43.6992 64.9102 43.7773C64.7734 43.8516 64.6621 43.9355 64.5762 44.0293C64.4902 44.1191 64.4473 44.209 64.4473 44.2988C64.4473 44.3887 64.502 44.4336 64.6113 44.4336C64.6777 44.4336 64.7852 44.4258 64.9336 44.4102C65.082 44.3945 65.2461 44.377 65.4258 44.3574C65.6055 44.334 65.7871 44.3086 65.9707 44.2812C66.1543 44.2539 66.3145 44.2285 66.4512 44.2051ZM71.502 40.3262C71.502 40.123 71.5605 39.9785 71.6777 39.8926C71.7949 39.8066 71.9883 39.7637 72.2578 39.7637C72.3516 39.7637 72.4336 39.7734 72.5039 39.793C72.5742 39.8125 72.6328 39.8457 72.6797 39.8926C72.7266 39.9355 72.7637 39.9961 72.791 40.0742C72.8223 40.1484 72.8477 40.2441 72.8672 40.3613C72.918 40.709 72.9688 41.0742 73.0195 41.457C73.0742 41.8359 73.125 42.2148 73.1719 42.5938C73.2227 42.9688 73.2695 43.3359 73.3125 43.6953C73.3555 44.0508 73.3926 44.3828 73.4238 44.6914C73.459 44.9961 73.4844 45.2676 73.5 45.5059C73.5195 45.7402 73.5293 45.9258 73.5293 46.0625C73.5293 46.2031 73.5156 46.3223 73.4883 46.4199C73.4648 46.5176 73.4219 46.5957 73.3594 46.6543C73.3008 46.7129 73.2227 46.7559 73.125 46.7832C73.0312 46.8066 72.9141 46.8184 72.7734 46.8184C72.6367 46.8184 72.5273 46.7832 72.4453 46.7129C72.3672 46.6426 72.3281 46.5352 72.3281 46.3906C72.3281 46.2422 72.3164 46.0449 72.293 45.7988C72.2695 45.5488 72.2383 45.2715 72.1992 44.9668C72.1602 44.6621 72.1152 44.3379 72.0645 43.9941C72.0176 43.6504 71.9668 43.3105 71.9121 42.9746C71.8613 42.6387 71.8105 42.3164 71.7598 42.0078C71.7129 41.6953 71.6699 41.4199 71.6309 41.1816C71.5918 40.9395 71.5605 40.7422 71.5371 40.5898C71.5137 40.4336 71.502 40.3457 71.502 40.3262ZM74.543 45.0547C74.543 44.9883 74.5508 44.9141 74.5664 44.832C74.582 44.75 74.5898 44.6602 74.5898 44.5625C74.5898 44.4961 74.5605 44.4453 74.502 44.4102C74.4473 44.375 74.3848 44.3359 74.3145 44.293C74.2441 44.25 74.1797 44.1953 74.1211 44.1289C74.0664 44.0625 74.0391 43.9668 74.0391 43.8418C74.0391 43.752 74.0625 43.6621 74.1094 43.5723C74.1602 43.4824 74.2324 43.4004 74.3262 43.3262C74.5566 43.1543 74.7949 43 75.041 42.8633C75.291 42.7266 75.5391 42.6113 75.7852 42.5176C76.0352 42.4238 76.2812 42.3516 76.5234 42.3008C76.7656 42.25 76.998 42.2246 77.2207 42.2246C77.5957 42.2246 77.9473 42.2949 78.2754 42.4355C78.6074 42.5723 78.8945 42.7617 79.1367 43.0039C79.3828 43.2422 79.5762 43.5234 79.7168 43.8477C79.8613 44.168 79.9336 44.5117 79.9336 44.8789C79.9336 45.2383 79.8574 45.5801 79.7051 45.9043C79.5566 46.2246 79.3555 46.5059 79.1016 46.748C78.8477 46.9902 78.5488 47.1816 78.2051 47.3223C77.8652 47.4668 77.5059 47.5391 77.127 47.5391C76.7559 47.5391 76.4121 47.4766 76.0957 47.3516C75.7793 47.2266 75.5059 47.0547 75.2754 46.8359C75.0449 46.6133 74.8652 46.3516 74.7363 46.0508C74.6074 45.7461 74.543 45.4141 74.543 45.0547ZM77.2559 46.4844C77.4199 46.4844 77.5898 46.4512 77.7656 46.3848C77.9414 46.3184 78.1016 46.2227 78.2461 46.0977C78.3945 45.9688 78.5156 45.8125 78.6094 45.6289C78.707 45.4453 78.7559 45.2383 78.7559 45.0078C78.7559 44.7734 78.7129 44.5547 78.627 44.3516C78.541 44.1484 78.4219 43.9727 78.2695 43.8242C78.1211 43.6719 77.9434 43.5527 77.7363 43.4668C77.5332 43.3809 77.3125 43.3379 77.0742 43.3379C76.6406 43.3379 76.3086 43.4512 76.0781 43.6777C75.8477 43.9004 75.7324 44.2441 75.7324 44.709C75.7324 44.9629 75.7695 45.1992 75.8438 45.418C75.9219 45.6328 76.0293 45.8203 76.166 45.9805C76.3027 46.1367 76.4629 46.2598 76.6465 46.3496C76.834 46.4395 77.0371 46.4844 77.2559 46.4844ZM83.8008 42.4297C83.9883 42.4297 84.166 42.4453 84.334 42.4766C84.502 42.5039 84.6543 42.5352 84.791 42.5703C84.9277 42.6016 85.0449 42.6328 85.1426 42.6641C85.2402 42.6914 85.3105 42.7051 85.3535 42.7051C85.3887 42.7051 85.4219 42.6875 85.4531 42.6523C85.4844 42.6133 85.5234 42.5723 85.5703 42.5293C85.6172 42.4863 85.6797 42.4473 85.7578 42.4121C85.8359 42.373 85.9395 42.3535 86.0684 42.3535C86.2168 42.3535 86.334 42.3926 86.4199 42.4707C86.5059 42.5449 86.5488 42.6387 86.5488 42.752C86.5488 44.1816 86.5 45.3965 86.4023 46.3965C86.3047 47.3926 86.1465 48.2031 85.9277 48.8281C85.709 49.4531 85.4258 49.9062 85.0781 50.1875C84.7305 50.4688 84.3086 50.6094 83.8125 50.6094C83.5859 50.6094 83.3496 50.5586 83.1035 50.457C82.8613 50.3555 82.6387 50.2246 82.4355 50.0645C82.2324 49.9082 82.0645 49.7344 81.9316 49.543C81.8027 49.3516 81.7383 49.168 81.7383 48.9922C81.7383 48.9336 81.7695 48.8652 81.832 48.7871C81.8945 48.709 81.9707 48.6328 82.0605 48.5586C82.1504 48.4844 82.2441 48.4219 82.3418 48.3711C82.4395 48.3203 82.5234 48.2949 82.5938 48.2949C82.668 48.2949 82.7305 48.3242 82.7812 48.3828C82.832 48.4453 82.8789 48.5215 82.9219 48.6113C82.9688 48.7012 83.0156 48.7988 83.0625 48.9043C83.1094 49.0137 83.168 49.1133 83.2383 49.2031C83.3086 49.293 83.3945 49.3672 83.4961 49.4258C83.5977 49.4883 83.7246 49.5195 83.877 49.5195C84.7285 49.5195 85.2285 48.2188 85.377 45.6172C85.377 45.5 85.3438 45.4414 85.2773 45.4414C85.2227 45.4414 85.1797 45.4688 85.1484 45.5234C84.7812 46.0195 84.3516 46.3926 83.8594 46.6426C83.3711 46.8887 82.8281 47.0117 82.2305 47.0117C81.9531 47.0117 81.6973 46.9707 81.4629 46.8887C81.2285 46.8027 81.0254 46.6855 80.8535 46.5371C80.6855 46.3848 80.5547 46.2051 80.4609 45.998C80.3672 45.7871 80.3203 45.5566 80.3203 45.3066C80.3203 45.0605 80.3633 44.8184 80.4492 44.5801C80.5391 44.3379 80.6621 44.1113 80.8184 43.9004C80.9785 43.6855 81.168 43.4883 81.3867 43.3086C81.6055 43.1289 81.8438 42.9746 82.1016 42.8457C82.3594 42.7129 82.6309 42.6113 82.916 42.541C83.2051 42.4668 83.5 42.4297 83.8008 42.4297ZM82.4121 45.9336C82.9473 45.9336 83.4375 45.7656 83.8828 45.4297C84.3281 45.0898 84.709 44.5977 85.0254 43.9531C85.0332 43.9297 85.0391 43.9121 85.043 43.9004C85.0469 43.8848 85.0488 43.8691 85.0488 43.8535C85.0488 43.8145 85.0078 43.7734 84.9258 43.7305C84.8438 43.6875 84.7363 43.6504 84.6035 43.6191C84.4707 43.5879 84.3184 43.5625 84.1465 43.543C83.9785 43.5195 83.8086 43.5078 83.6367 43.5078C83.3594 43.5078 83.0918 43.5547 82.834 43.6484C82.5762 43.7422 82.3477 43.8672 82.1484 44.0234C81.9492 44.1797 81.7891 44.3574 81.668 44.5566C81.5469 44.7559 81.4863 44.9629 81.4863 45.1777C81.4863 45.4082 81.5703 45.5918 81.7383 45.7285C81.9102 45.8652 82.1348 45.9336 82.4121 45.9336ZM91.8398 41.9141C92.1016 41.9141 92.3711 41.9492 92.6484 42.0195C92.9258 42.0859 93.1797 42.1738 93.4102 42.2832C93.6406 42.3887 93.8301 42.5078 93.9785 42.6406C94.127 42.7734 94.2012 42.9023 94.2012 43.0273C94.2012 43.0898 94.1738 43.1602 94.1191 43.2383C94.0645 43.3125 93.998 43.3848 93.9199 43.4551C93.8418 43.5215 93.7559 43.5781 93.6621 43.625C93.5723 43.668 93.4922 43.6895 93.4219 43.6895C93.3281 43.6895 93.2227 43.6504 93.1055 43.5723C92.9922 43.4941 92.8652 43.4082 92.7246 43.3145C92.5879 43.2168 92.4375 43.1289 92.2734 43.0508C92.1094 42.9727 91.9316 42.9336 91.7402 42.9336C91.6152 42.9336 91.5117 42.9648 91.4297 43.0273C91.3516 43.0859 91.3125 43.1699 91.3125 43.2793C91.3125 43.377 91.3594 43.4766 91.4531 43.5781C91.5469 43.6758 91.6699 43.7773 91.8223 43.8828C91.9785 43.9883 92.1543 44.0996 92.3496 44.2168C92.5449 44.334 92.7441 44.459 92.9473 44.5918C93.1543 44.7246 93.3555 44.8691 93.5508 45.0254C93.7461 45.1816 93.9199 45.3516 94.0723 45.5352C94.2285 45.7188 94.3535 45.9199 94.4473 46.1387C94.541 46.3535 94.5879 46.5879 94.5879 46.8418C94.5879 47.0605 94.5488 47.2598 94.4707 47.4395C94.3926 47.6191 94.2812 47.7734 94.1367 47.9023C93.9922 48.0312 93.8203 48.1309 93.6211 48.2012C93.4219 48.2715 93.2031 48.3066 92.9648 48.3066C92.6641 48.3066 92.3867 48.2598 92.1328 48.166C91.8789 48.0762 91.6602 47.9512 91.4766 47.791C91.293 47.6309 91.1484 47.4395 91.043 47.2168C90.9414 46.9941 90.8906 46.75 90.8906 46.4844C90.8906 46.1406 90.9512 45.8906 91.0723 45.7344C91.1973 45.5781 91.3926 45.5 91.6582 45.5C91.8223 45.5 91.9531 45.5312 92.0508 45.5938C92.1484 45.6562 92.1973 45.7324 92.1973 45.8223C92.1973 45.8691 92.1895 45.918 92.1738 45.9688C92.1582 46.0156 92.1406 46.0664 92.1211 46.1211C92.1055 46.1719 92.0898 46.2266 92.0742 46.2852C92.0625 46.3438 92.0566 46.4023 92.0566 46.4609C92.0566 46.5625 92.0801 46.6602 92.127 46.7539C92.1738 46.8477 92.2363 46.9297 92.3145 47C92.3965 47.0742 92.4902 47.1328 92.5957 47.1758C92.7012 47.2188 92.8125 47.2402 92.9297 47.2402C93.2422 47.2402 93.3984 47.1113 93.3984 46.8535C93.3984 46.6504 93.3184 46.459 93.1582 46.2793C92.998 46.0957 92.7969 45.918 92.5547 45.7461C92.3125 45.5703 92.0508 45.3945 91.7695 45.2188C91.4922 45.043 91.2324 44.8594 90.9902 44.668C90.748 44.4766 90.5469 44.2734 90.3867 44.0586C90.2266 43.8398 90.1465 43.6035 90.1465 43.3496C90.1465 43.1387 90.1895 42.9453 90.2754 42.7695C90.3652 42.5938 90.4863 42.4434 90.6387 42.3184C90.791 42.1895 90.9688 42.0898 91.1719 42.0195C91.3789 41.9492 91.6016 41.9141 91.8398 41.9141ZM94.875 45.0547C94.875 44.9883 94.8828 44.9141 94.8984 44.832C94.9141 44.75 94.9219 44.6602 94.9219 44.5625C94.9219 44.4961 94.8926 44.4453 94.834 44.4102C94.7793 44.375 94.7168 44.3359 94.6465 44.293C94.5762 44.25 94.5117 44.1953 94.4531 44.1289C94.3984 44.0625 94.3711 43.9668 94.3711 43.8418C94.3711 43.752 94.3945 43.6621 94.4414 43.5723C94.4922 43.4824 94.5645 43.4004 94.6582 43.3262C94.8887 43.1543 95.127 43 95.373 42.8633C95.623 42.7266 95.8711 42.6113 96.1172 42.5176C96.3672 42.4238 96.6133 42.3516 96.8555 42.3008C97.0977 42.25 97.3301 42.2246 97.5527 42.2246C97.9277 42.2246 98.2793 42.2949 98.6074 42.4355C98.9395 42.5723 99.2266 42.7617 99.4688 43.0039C99.7148 43.2422 99.9082 43.5234 100.049 43.8477C100.193 44.168 100.266 44.5117 100.266 44.8789C100.266 45.2383 100.189 45.5801 100.037 45.9043C99.8887 46.2246 99.6875 46.5059 99.4336 46.748C99.1797 46.9902 98.8809 47.1816 98.5371 47.3223C98.1973 47.4668 97.8379 47.5391 97.459 47.5391C97.0879 47.5391 96.7441 47.4766 96.4277 47.3516C96.1113 47.2266 95.8379 47.0547 95.6074 46.8359C95.377 46.6133 95.1973 46.3516 95.0684 46.0508C94.9395 45.7461 94.875 45.4141 94.875 45.0547ZM97.5879 46.4844C97.752 46.4844 97.9219 46.4512 98.0977 46.3848C98.2734 46.3184 98.4336 46.2227 98.5781 46.0977C98.7266 45.9688 98.8477 45.8125 98.9414 45.6289C99.0391 45.4453 99.0879 45.2383 99.0879 45.0078C99.0879 44.7734 99.0449 44.5547 98.959 44.3516C98.873 44.1484 98.7539 43.9727 98.6016 43.8242C98.4531 43.6719 98.2754 43.5527 98.0684 43.4668C97.8652 43.3809 97.6445 43.3379 97.4062 43.3379C96.9727 43.3379 96.6406 43.4512 96.4102 43.6777C96.1797 43.9004 96.0645 44.2441 96.0645 44.709C96.0645 44.9629 96.1016 45.1992 96.1758 45.418C96.2539 45.6328 96.3613 45.8203 96.498 45.9805C96.6348 46.1367 96.7949 46.2598 96.9785 46.3496C97.166 46.4395 97.3691 46.4844 97.5879 46.4844ZM100.717 40.3262C100.717 40.123 100.775 39.9785 100.893 39.8926C101.01 39.8066 101.203 39.7637 101.473 39.7637C101.566 39.7637 101.648 39.7734 101.719 39.793C101.789 39.8125 101.848 39.8457 101.895 39.8926C101.941 39.9355 101.979 39.9961 102.006 40.0742C102.037 40.1484 102.062 40.2441 102.082 40.3613C102.133 40.709 102.184 41.0742 102.234 41.457C102.289 41.8359 102.34 42.2148 102.387 42.5938C102.438 42.9688 102.484 43.3359 102.527 43.6953C102.57 44.0508 102.607 44.3828 102.639 44.6914C102.674 44.9961 102.699 45.2676 102.715 45.5059C102.734 45.7402 102.744 45.9258 102.744 46.0625C102.744 46.2031 102.73 46.3223 102.703 46.4199C102.68 46.5176 102.637 46.5957 102.574 46.6543C102.516 46.7129 102.438 46.7559 102.34 46.7832C102.246 46.8066 102.129 46.8184 101.988 46.8184C101.852 46.8184 101.742 46.7832 101.66 46.7129C101.582 46.6426 101.543 46.5352 101.543 46.3906C101.543 46.2422 101.531 46.0449 101.508 45.7988C101.484 45.5488 101.453 45.2715 101.414 44.9668C101.375 44.6621 101.33 44.3379 101.279 43.9941C101.232 43.6504 101.182 43.3105 101.127 42.9746C101.076 42.6387 101.025 42.3164 100.975 42.0078C100.928 41.6953 100.885 41.4199 100.846 41.1816C100.807 40.9395 100.775 40.7422 100.752 40.5898C100.729 40.4336 100.717 40.3457 100.717 40.3262ZM106.816 42.4766C106.828 42.3672 106.842 42.2773 106.857 42.207C106.877 42.1328 106.904 42.0742 106.939 42.0312C106.979 41.9844 107.027 41.9512 107.086 41.9316C107.145 41.9121 107.219 41.9023 107.309 41.9023C107.594 41.9023 107.803 41.9453 107.936 42.0312C108.072 42.1133 108.141 42.2461 108.141 42.4297C108.141 42.4648 108.133 42.543 108.117 42.6641C108.105 42.7812 108.088 42.9277 108.064 43.1035C108.041 43.2754 108.014 43.4668 107.982 43.6777C107.955 43.8848 107.928 44.0957 107.9 44.3105C107.83 44.8105 107.75 45.3711 107.66 45.9922C107.605 46.3594 107.496 46.623 107.332 46.7832C107.172 46.9434 106.934 47.0234 106.617 47.0234C106.379 47.0234 106.133 46.9629 105.879 46.8418C105.625 46.7207 105.379 46.5566 105.141 46.3496C104.902 46.1426 104.676 45.9023 104.461 45.6289C104.25 45.3516 104.064 45.0586 103.904 44.75C103.744 44.4375 103.617 44.1191 103.523 43.7949C103.434 43.4707 103.389 43.1543 103.389 42.8457C103.389 42.498 103.438 42.2383 103.535 42.0664C103.637 41.8906 103.811 41.8027 104.057 41.8027C104.229 41.8027 104.371 41.8145 104.484 41.8379C104.598 41.8574 104.688 41.8945 104.754 41.9492C104.824 42 104.873 42.0684 104.9 42.1543C104.932 42.2402 104.947 42.3477 104.947 42.4766C104.947 42.5625 104.943 42.6484 104.936 42.7344C104.928 42.8203 104.924 42.9062 104.924 42.9922C104.924 43.1914 104.943 43.4004 104.982 43.6191C105.025 43.834 105.082 44.0449 105.152 44.252C105.223 44.459 105.305 44.6562 105.398 44.8438C105.492 45.0273 105.592 45.1895 105.697 45.3301C105.803 45.4707 105.908 45.582 106.014 45.6641C106.123 45.7461 106.229 45.7871 106.33 45.7871C106.4 45.7871 106.453 45.7637 106.488 45.7168C106.527 45.6699 106.553 45.5898 106.564 45.4766L106.816 42.4766ZM109.857 41.0234C109.744 41.0234 109.637 41.0078 109.535 40.9766C109.438 40.9414 109.352 40.8945 109.277 40.8359C109.207 40.7734 109.15 40.7012 109.107 40.6191C109.064 40.5371 109.043 40.4473 109.043 40.3496C109.043 40.1855 109.107 40.0527 109.236 39.9512C109.369 39.8496 109.545 39.7988 109.764 39.7988C109.865 39.7988 109.963 39.8184 110.057 39.8574C110.15 39.8926 110.232 39.9414 110.303 40.0039C110.377 40.0664 110.436 40.1406 110.479 40.2266C110.521 40.3086 110.543 40.3945 110.543 40.4844C110.543 40.6523 110.48 40.7852 110.355 40.8828C110.234 40.9766 110.068 41.0234 109.857 41.0234ZM109.055 42.8105C109.055 42.6738 109.113 42.5625 109.23 42.4766C109.352 42.3867 109.51 42.3418 109.705 42.3418C110.057 42.3418 110.244 42.4629 110.268 42.7051C110.283 42.873 110.299 43.0625 110.314 43.2734C110.334 43.4844 110.352 43.709 110.367 43.9473C110.387 44.1816 110.402 44.4258 110.414 44.6797C110.43 44.9297 110.443 45.1777 110.455 45.4238C110.467 45.666 110.477 45.9004 110.484 46.127C110.492 46.3535 110.496 46.5605 110.496 46.748C110.496 46.9434 110.426 47.0898 110.285 47.1875C110.148 47.2852 109.947 47.334 109.682 47.334C109.561 47.334 109.465 47.3047 109.395 47.2461C109.328 47.1914 109.295 47.1094 109.295 47C109.295 46.4609 109.281 45.957 109.254 45.4883C109.23 45.0156 109.203 44.5957 109.172 44.2285C109.145 43.8613 109.117 43.5566 109.09 43.3145C109.066 43.0684 109.055 42.9004 109.055 42.8105ZM111.68 42.2715C111.68 42.2129 111.705 42.1562 111.756 42.1016C111.807 42.043 111.873 41.9922 111.955 41.9492C112.037 41.9023 112.129 41.8652 112.23 41.8379C112.336 41.8066 112.441 41.791 112.547 41.791C112.605 41.791 112.654 41.8066 112.693 41.8379C112.736 41.8691 112.773 41.9297 112.805 42.0195C112.836 42.1055 112.863 42.2285 112.887 42.3887C112.914 42.5449 112.939 42.75 112.963 43.0039C112.979 43.082 112.992 43.1426 113.004 43.1855C113.02 43.2246 113.039 43.2441 113.062 43.2441C113.098 43.2441 113.133 43.1836 113.168 43.0625C113.453 42.2383 113.865 41.8262 114.404 41.8262C114.654 41.8262 114.881 41.9043 115.084 42.0605C115.291 42.2168 115.482 42.4727 115.658 42.8281C115.838 43.1797 116.008 43.6445 116.168 44.2227C116.328 44.7969 116.488 45.5059 116.648 46.3496C116.656 46.3926 116.662 46.4316 116.666 46.4668C116.67 46.502 116.672 46.5352 116.672 46.5664C116.672 46.6562 116.65 46.7344 116.607 46.8008C116.568 46.8633 116.516 46.916 116.449 46.959C116.383 46.998 116.309 47.0273 116.227 47.0469C116.145 47.0703 116.062 47.082 115.98 47.082C115.816 47.082 115.697 47.0645 115.623 47.0293C115.553 46.9941 115.508 46.9277 115.488 46.8301C115.375 46.2363 115.264 45.709 115.154 45.248C115.049 44.7871 114.943 44.4004 114.838 44.0879C114.736 43.7715 114.635 43.5312 114.533 43.3672C114.432 43.2031 114.33 43.1211 114.229 43.1211C114.127 43.1211 114.031 43.1855 113.941 43.3145C113.855 43.4395 113.771 43.6367 113.689 43.9062C113.607 44.1758 113.527 44.5176 113.449 44.9316C113.375 45.3457 113.303 45.8398 113.232 46.4141C113.213 46.5703 113.135 46.6953 112.998 46.7891C112.861 46.8828 112.688 46.9297 112.477 46.9297C112.336 46.9297 112.229 46.9004 112.154 46.8418C112.08 46.7832 112.039 46.7031 112.031 46.6016C111.996 45.7891 111.957 45.1211 111.914 44.5977C111.875 44.0703 111.838 43.6484 111.803 43.332C111.768 43.0117 111.738 42.7734 111.715 42.6172C111.691 42.4609 111.68 42.3457 111.68 42.2715ZM120.387 42.4297C120.574 42.4297 120.752 42.4453 120.92 42.4766C121.088 42.5039 121.24 42.5352 121.377 42.5703C121.514 42.6016 121.631 42.6328 121.729 42.6641C121.826 42.6914 121.896 42.7051 121.939 42.7051C121.975 42.7051 122.008 42.6875 122.039 42.6523C122.07 42.6133 122.109 42.5723 122.156 42.5293C122.203 42.4863 122.266 42.4473 122.344 42.4121C122.422 42.373 122.525 42.3535 122.654 42.3535C122.803 42.3535 122.92 42.3926 123.006 42.4707C123.092 42.5449 123.135 42.6387 123.135 42.752C123.135 44.1816 123.086 45.3965 122.988 46.3965C122.891 47.3926 122.732 48.2031 122.514 48.8281C122.295 49.4531 122.012 49.9062 121.664 50.1875C121.316 50.4688 120.895 50.6094 120.398 50.6094C120.172 50.6094 119.936 50.5586 119.689 50.457C119.447 50.3555 119.225 50.2246 119.021 50.0645C118.818 49.9082 118.65 49.7344 118.518 49.543C118.389 49.3516 118.324 49.168 118.324 48.9922C118.324 48.9336 118.355 48.8652 118.418 48.7871C118.48 48.709 118.557 48.6328 118.646 48.5586C118.736 48.4844 118.83 48.4219 118.928 48.3711C119.025 48.3203 119.109 48.2949 119.18 48.2949C119.254 48.2949 119.316 48.3242 119.367 48.3828C119.418 48.4453 119.465 48.5215 119.508 48.6113C119.555 48.7012 119.602 48.7988 119.648 48.9043C119.695 49.0137 119.754 49.1133 119.824 49.2031C119.895 49.293 119.98 49.3672 120.082 49.4258C120.184 49.4883 120.311 49.5195 120.463 49.5195C121.314 49.5195 121.814 48.2188 121.963 45.6172C121.963 45.5 121.93 45.4414 121.863 45.4414C121.809 45.4414 121.766 45.4688 121.734 45.5234C121.367 46.0195 120.938 46.3926 120.445 46.6426C119.957 46.8887 119.414 47.0117 118.816 47.0117C118.539 47.0117 118.283 46.9707 118.049 46.8887C117.814 46.8027 117.611 46.6855 117.439 46.5371C117.271 46.3848 117.141 46.2051 117.047 45.998C116.953 45.7871 116.906 45.5566 116.906 45.3066C116.906 45.0605 116.949 44.8184 117.035 44.5801C117.125 44.3379 117.248 44.1113 117.404 43.9004C117.564 43.6855 117.754 43.4883 117.973 43.3086C118.191 43.1289 118.43 42.9746 118.688 42.8457C118.945 42.7129 119.217 42.6113 119.502 42.541C119.791 42.4668 120.086 42.4297 120.387 42.4297ZM118.998 45.9336C119.533 45.9336 120.023 45.7656 120.469 45.4297C120.914 45.0898 121.295 44.5977 121.611 43.9531C121.619 43.9297 121.625 43.9121 121.629 43.9004C121.633 43.8848 121.635 43.8691 121.635 43.8535C121.635 43.8145 121.594 43.7734 121.512 43.7305C121.43 43.6875 121.322 43.6504 121.189 43.6191C121.057 43.5879 120.904 43.5625 120.732 43.543C120.564 43.5195 120.395 43.5078 120.223 43.5078C119.945 43.5078 119.678 43.5547 119.42 43.6484C119.162 43.7422 118.934 43.8672 118.734 44.0234C118.535 44.1797 118.375 44.3574 118.254 44.5566C118.133 44.7559 118.072 44.9629 118.072 45.1777C118.072 45.4082 118.156 45.5918 118.324 45.7285C118.496 45.8652 118.721 45.9336 118.998 45.9336ZM126.539 46.291C126.539 46.334 126.51 46.4355 126.451 46.5957C126.393 46.7559 126.314 46.9434 126.217 47.1582C126.123 47.373 126.014 47.5996 125.889 47.8379C125.764 48.0762 125.637 48.2949 125.508 48.4941C125.379 48.6934 125.252 48.8574 125.127 48.9863C125.006 49.1191 124.896 49.1855 124.799 49.1855C124.752 49.1855 124.693 49.1719 124.623 49.1445C124.553 49.1172 124.484 49.082 124.418 49.0391C124.355 49 124.301 48.9551 124.254 48.9043C124.207 48.8574 124.184 48.8105 124.184 48.7637C124.184 48.7246 124.223 48.627 124.301 48.4707C124.383 48.3184 124.482 48.1191 124.6 47.873C124.717 47.6309 124.842 47.3516 124.975 47.0352C125.107 46.7188 125.225 46.3789 125.326 46.0156C125.35 45.9375 125.383 45.877 125.426 45.834C125.469 45.7871 125.527 45.7637 125.602 45.7637C125.672 45.7637 125.76 45.7793 125.865 45.8105C125.971 45.8379 126.072 45.877 126.17 45.9277C126.271 45.9746 126.357 46.0293 126.428 46.0918C126.502 46.1543 126.539 46.2207 126.539 46.291ZM131.262 47.252C131.234 46.7324 131.189 46.2539 131.127 45.8164C131.068 45.375 131.006 44.9902 130.939 44.6621C130.877 44.334 130.82 44.0684 130.77 43.8652C130.723 43.6621 130.699 43.5352 130.699 43.4844C130.699 43.4102 130.727 43.3379 130.781 43.2676C130.84 43.1973 130.912 43.1367 130.998 43.0859C131.084 43.0312 131.176 42.9883 131.273 42.957C131.375 42.9258 131.467 42.9102 131.549 42.9102C131.615 42.9102 131.672 42.9219 131.719 42.9453C131.77 42.9688 131.805 43.0078 131.824 43.0625C131.844 43.1289 131.861 43.1992 131.877 43.2734C131.896 43.3438 131.916 43.4297 131.936 43.5312C131.959 43.6758 131.99 43.748 132.029 43.748C132.072 43.748 132.121 43.6836 132.176 43.5547C132.254 43.375 132.338 43.2266 132.428 43.1094C132.518 42.9922 132.613 42.9004 132.715 42.834C132.82 42.7637 132.928 42.7148 133.037 42.6875C133.15 42.6602 133.268 42.6465 133.389 42.6465C133.756 42.6465 134.066 42.791 134.32 43.0801C134.578 43.3691 134.779 43.7871 134.924 44.334C134.943 44.3965 134.961 44.4375 134.977 44.457C134.992 44.4727 135.01 44.4805 135.029 44.4805C135.049 44.4805 135.068 44.4727 135.088 44.457C135.111 44.4375 135.133 44.4004 135.152 44.3457C135.246 44.0918 135.355 43.877 135.48 43.7012C135.605 43.5215 135.734 43.377 135.867 43.2676C136.004 43.1543 136.143 43.0723 136.283 43.0215C136.424 42.9707 136.559 42.9453 136.688 42.9453C136.926 42.9453 137.141 43.0332 137.332 43.209C137.527 43.3809 137.699 43.6484 137.848 44.0117C138 44.3711 138.131 44.8281 138.24 45.3828C138.354 45.9336 138.447 46.5879 138.521 47.3457C138.521 47.5566 138.457 47.7031 138.328 47.7852C138.199 47.8711 138.023 47.9141 137.801 47.9141C137.656 47.9141 137.543 47.8828 137.461 47.8203C137.379 47.7578 137.332 47.6758 137.32 47.5742C137.27 47.0312 137.213 46.5488 137.15 46.127C137.092 45.7012 137.027 45.3438 136.957 45.0547C136.887 44.7617 136.809 44.5391 136.723 44.3867C136.641 44.2344 136.549 44.1582 136.447 44.1582C136.396 44.1582 136.332 44.1953 136.254 44.2695C136.18 44.3438 136.1 44.4805 136.014 44.6797C135.928 44.875 135.838 45.1445 135.744 45.4883C135.65 45.8281 135.561 46.2637 135.475 46.7949C135.451 46.9434 135.379 47.0566 135.258 47.1348C135.141 47.2129 134.996 47.252 134.824 47.252C134.625 47.252 134.486 47.2207 134.408 47.1582C134.334 47.0957 134.293 46.9902 134.285 46.8418C134.27 46.584 134.242 46.3281 134.203 46.0742C134.168 45.8164 134.123 45.5723 134.068 45.3418C134.014 45.1074 133.953 44.8926 133.887 44.6973C133.82 44.498 133.75 44.3262 133.676 44.1816C133.602 44.0332 133.525 43.918 133.447 43.8359C133.369 43.7539 133.293 43.7129 133.219 43.7129C133.121 43.7129 133.025 43.7812 132.932 43.918C132.842 44.0547 132.76 44.248 132.686 44.498C132.615 44.748 132.559 45.0488 132.516 45.4004C132.473 45.752 132.451 46.1445 132.451 46.5781C132.451 46.6523 132.453 46.7266 132.457 46.8008C132.461 46.8711 132.463 46.9453 132.463 47.0234C132.463 47.1406 132.443 47.2363 132.404 47.3105C132.369 47.3848 132.316 47.4434 132.246 47.4863C132.18 47.5293 132.102 47.5586 132.012 47.5742C131.922 47.5898 131.824 47.5977 131.719 47.5977C131.621 47.5977 131.543 47.5898 131.484 47.5742C131.426 47.5625 131.381 47.543 131.35 47.5156C131.318 47.4883 131.297 47.4512 131.285 47.4043C131.273 47.3613 131.266 47.3105 131.262 47.252ZM142.939 41.8789C143.154 41.8789 143.361 41.9121 143.561 41.9785C143.76 42.0449 143.936 42.1367 144.088 42.2539C144.24 42.3711 144.361 42.5117 144.451 42.6758C144.545 42.8398 144.592 43.0215 144.592 43.2207C144.592 43.3027 144.572 43.3828 144.533 43.4609C144.498 43.5352 144.449 43.6016 144.387 43.6602C144.324 43.7148 144.252 43.7598 144.17 43.7949C144.092 43.8262 144.01 43.8418 143.924 43.8418C143.916 43.8418 143.908 43.8438 143.9 43.8477C143.896 43.8477 143.891 43.8477 143.883 43.8477C143.875 43.8516 143.867 43.8535 143.859 43.8535L143.883 44.3223C143.898 44.8809 143.977 45.2891 144.117 45.5469C144.262 45.8047 144.449 45.9336 144.68 45.9336C144.762 45.9336 144.834 45.9258 144.896 45.9102C144.963 45.8945 145.023 45.877 145.078 45.8574C145.137 45.834 145.191 45.8145 145.242 45.7988C145.293 45.7832 145.344 45.7754 145.395 45.7754C145.484 45.7754 145.562 45.8145 145.629 45.8926C145.699 45.9707 145.734 46.0645 145.734 46.1738C145.734 46.2832 145.691 46.3926 145.605 46.502C145.523 46.6113 145.414 46.7109 145.277 46.8008C145.141 46.8867 144.986 46.957 144.814 47.0117C144.643 47.0664 144.469 47.0938 144.293 47.0938C143.988 47.0938 143.721 46.9688 143.49 46.7188C143.26 46.4648 143.096 46.0938 142.998 45.6055C142.975 45.5273 142.943 45.4883 142.904 45.4883C142.857 45.4883 142.816 45.5117 142.781 45.5586C142.395 46.0469 141.982 46.4141 141.545 46.6602C141.107 46.9023 140.676 47.0234 140.25 47.0234C140.051 47.0234 139.871 46.9941 139.711 46.9355C139.551 46.877 139.414 46.7949 139.301 46.6895C139.191 46.5801 139.105 46.4492 139.043 46.2969C138.984 46.1406 138.955 45.9668 138.955 45.7754C138.955 45.5059 139.014 45.2227 139.131 44.9258C139.252 44.6289 139.414 44.3359 139.617 44.0469C139.82 43.7578 140.055 43.4824 140.32 43.2207C140.59 42.959 140.871 42.7285 141.164 42.5293C141.461 42.3301 141.762 42.1719 142.066 42.0547C142.371 41.9375 142.662 41.8789 142.939 41.8789ZM142.746 43.9062C142.816 43.7734 142.881 43.6777 142.939 43.6191C142.998 43.5566 143.082 43.5156 143.191 43.4961C143.277 43.4844 143.32 43.457 143.32 43.4141C143.32 43.3828 143.309 43.3496 143.285 43.3145C143.211 43.2129 143.133 43.125 143.051 43.0508C142.969 42.9727 142.859 42.9336 142.723 42.9336C142.574 42.9336 142.408 42.9766 142.225 43.0625C142.041 43.1484 141.854 43.2637 141.662 43.4082C141.475 43.5488 141.289 43.7109 141.105 43.8945C140.926 44.0742 140.766 44.2598 140.625 44.4512C140.484 44.6426 140.371 44.832 140.285 45.0195C140.199 45.207 140.156 45.375 140.156 45.5234C140.156 45.6562 140.191 45.7598 140.262 45.834C140.336 45.9082 140.436 45.9453 140.561 45.9453C140.881 45.9453 141.23 45.7754 141.609 45.4355C141.988 45.0957 142.367 44.5859 142.746 43.9062ZM149.848 42.7168C149.863 42.7246 149.887 42.7285 149.918 42.7285C150.004 42.7285 150.047 42.6719 150.047 42.5586V40.7363C150.047 40.5059 150.098 40.3418 150.199 40.2441C150.305 40.1465 150.479 40.0977 150.721 40.0977C150.967 40.0977 151.141 40.1484 151.242 40.25C151.344 40.3516 151.395 40.5254 151.395 40.7715C151.395 40.8652 151.389 41.0039 151.377 41.1875C151.365 41.3672 151.352 41.5723 151.336 41.8027C151.324 42.0332 151.312 42.2812 151.301 42.5469C151.289 42.8086 151.283 43.0684 151.283 43.3262C151.283 43.7246 151.311 44.0684 151.365 44.3574C151.42 44.6465 151.498 44.8867 151.6 45.0781C151.701 45.2656 151.822 45.4062 151.963 45.5C152.104 45.5898 152.262 45.6348 152.438 45.6348C152.535 45.6348 152.623 45.623 152.701 45.5996C152.783 45.5723 152.879 45.5586 152.988 45.5586C153.066 45.5586 153.131 45.5996 153.182 45.6816C153.236 45.7598 153.264 45.8555 153.264 45.9688C153.264 46.0703 153.232 46.166 153.17 46.2559C153.111 46.3457 153.029 46.4238 152.924 46.4902C152.822 46.5566 152.703 46.6094 152.566 46.6484C152.43 46.6836 152.287 46.7012 152.139 46.7012C151.818 46.7012 151.525 46.6035 151.26 46.4082C150.994 46.209 150.795 45.9062 150.662 45.5C150.65 45.4375 150.631 45.4062 150.604 45.4062C150.572 45.4062 150.547 45.4375 150.527 45.5C150.422 45.7852 150.283 46.043 150.111 46.2734C149.943 46.5 149.746 46.6953 149.52 46.8594C149.297 47.0195 149.051 47.1426 148.781 47.2285C148.516 47.3145 148.234 47.3574 147.938 47.3574C147.625 47.3574 147.338 47.3047 147.076 47.1992C146.818 47.0977 146.596 46.9551 146.408 46.7715C146.221 46.584 146.074 46.3652 145.969 46.1152C145.863 45.8613 145.811 45.5879 145.811 45.2949C145.811 44.9199 145.889 44.5664 146.045 44.2344C146.201 43.9023 146.412 43.6133 146.678 43.3672C146.947 43.1172 147.26 42.9199 147.615 42.7754C147.971 42.6309 148.35 42.5586 148.752 42.5586C148.916 42.5586 149.09 42.5723 149.273 42.5996C149.457 42.623 149.648 42.6621 149.848 42.7168ZM148.166 46.3027C148.389 46.3027 148.586 46.2539 148.758 46.1562C148.934 46.0586 149.088 45.9355 149.221 45.7871C149.357 45.6348 149.473 45.4688 149.566 45.2891C149.66 45.1055 149.736 44.9277 149.795 44.7559C149.854 44.584 149.896 44.4297 149.924 44.293C149.951 44.1562 149.965 44.0586 149.965 44C149.965 43.957 149.953 43.9199 149.93 43.8887C149.906 43.8535 149.871 43.8262 149.824 43.8066C149.719 43.7793 149.609 43.7559 149.496 43.7363C149.383 43.7129 149.271 43.6934 149.162 43.6777C149.053 43.6621 148.947 43.6504 148.846 43.6426C148.748 43.6348 148.658 43.6309 148.576 43.6309C148.342 43.6309 148.129 43.666 147.938 43.7363C147.746 43.8066 147.582 43.9062 147.445 44.0352C147.312 44.1641 147.209 44.3184 147.135 44.498C147.061 44.6738 147.023 44.8672 147.023 45.0781C147.023 45.2656 147.051 45.4355 147.105 45.5879C147.164 45.7363 147.242 45.8633 147.34 45.9688C147.441 46.0742 147.562 46.1562 147.703 46.2148C147.844 46.2734 147.998 46.3027 148.166 46.3027ZM157.945 45.7168C158.059 45.6191 158.17 45.5703 158.279 45.5703C158.342 45.5703 158.398 45.5859 158.449 45.6172C158.5 45.6484 158.557 45.6973 158.619 45.7637C158.678 45.8535 158.719 45.9277 158.742 45.9863C158.77 46.041 158.783 46.0957 158.783 46.1504C158.783 46.2676 158.725 46.3789 158.607 46.4844C158.42 46.6406 158.217 46.7812 157.998 46.9062C157.779 47.0273 157.551 47.1309 157.312 47.2168C157.074 47.3027 156.828 47.3672 156.574 47.4102C156.32 47.457 156.068 47.4805 155.818 47.4805C155.502 47.4805 155.205 47.4395 154.928 47.3574C154.65 47.2793 154.402 47.166 154.184 47.0176C153.969 46.8691 153.787 46.6914 153.639 46.4844C153.49 46.2734 153.385 46.0371 153.322 45.7754C153.287 45.666 153.254 45.5957 153.223 45.5645C153.195 45.5293 153.148 45.5117 153.082 45.5117C152.938 45.5117 152.826 45.4766 152.748 45.4062C152.67 45.3359 152.631 45.2344 152.631 45.1016C152.631 45.0469 152.635 45.0117 152.643 44.9961L152.654 44.8789C152.674 44.7383 152.711 44.6367 152.766 44.5742C152.824 44.5117 152.914 44.4805 153.035 44.4805H153.123C153.287 44.4805 153.402 44.4043 153.469 44.252C153.59 43.9824 153.744 43.7363 153.932 43.5137C154.119 43.291 154.33 43.1016 154.564 42.9453C154.799 42.7852 155.049 42.6621 155.314 42.5762C155.584 42.4863 155.857 42.4414 156.135 42.4414C156.424 42.4414 156.693 42.4844 156.943 42.5703C157.197 42.6523 157.418 42.7676 157.605 42.916C157.793 43.0645 157.939 43.2383 158.045 43.4375C158.154 43.6367 158.209 43.8516 158.209 44.082C158.209 44.2422 158.178 44.3887 158.115 44.5215C158.053 44.6543 157.963 44.7715 157.846 44.873C157.729 44.9707 157.586 45.0508 157.418 45.1133C157.254 45.1758 157.066 45.2168 156.855 45.2363L154.822 45.4414C154.744 45.4414 154.68 45.4609 154.629 45.5C154.582 45.5391 154.559 45.5918 154.559 45.6582C154.559 45.7598 154.596 45.8574 154.67 45.9512C154.748 46.0449 154.85 46.1289 154.975 46.2031C155.104 46.2734 155.25 46.3301 155.414 46.373C155.582 46.416 155.754 46.4375 155.93 46.4375C156.098 46.4375 156.27 46.4219 156.445 46.3906C156.625 46.3555 156.801 46.3066 156.973 46.2441C157.148 46.1816 157.318 46.1074 157.482 46.0215C157.646 45.9316 157.801 45.8301 157.945 45.7168ZM156.639 44.2051C156.697 44.1934 156.748 44.166 156.791 44.123C156.834 44.0762 156.855 44.0195 156.855 43.9531C156.855 43.8945 156.834 43.8398 156.791 43.7891C156.748 43.7383 156.689 43.6934 156.615 43.6543C156.541 43.6113 156.455 43.5781 156.357 43.5547C156.26 43.5312 156.156 43.5195 156.047 43.5195C155.887 43.5195 155.723 43.543 155.555 43.5898C155.387 43.6367 155.234 43.6992 155.098 43.7773C154.961 43.8516 154.85 43.9355 154.764 44.0293C154.678 44.1191 154.635 44.209 154.635 44.2988C154.635 44.3887 154.689 44.4336 154.799 44.4336C154.865 44.4336 154.973 44.4258 155.121 44.4102C155.27 44.3945 155.434 44.377 155.613 44.3574C155.793 44.334 155.975 44.3086 156.158 44.2812C156.342 44.2539 156.502 44.2285 156.639 44.2051ZM165.926 42.7168C165.941 42.7246 165.965 42.7285 165.996 42.7285C166.082 42.7285 166.125 42.6719 166.125 42.5586V40.7363C166.125 40.5059 166.176 40.3418 166.277 40.2441C166.383 40.1465 166.557 40.0977 166.799 40.0977C167.045 40.0977 167.219 40.1484 167.32 40.25C167.422 40.3516 167.473 40.5254 167.473 40.7715C167.473 40.8652 167.467 41.0039 167.455 41.1875C167.443 41.3672 167.43 41.5723 167.414 41.8027C167.402 42.0332 167.391 42.2812 167.379 42.5469C167.367 42.8086 167.361 43.0684 167.361 43.3262C167.361 43.7246 167.389 44.0684 167.443 44.3574C167.498 44.6465 167.576 44.8867 167.678 45.0781C167.779 45.2656 167.9 45.4062 168.041 45.5C168.182 45.5898 168.34 45.6348 168.516 45.6348C168.613 45.6348 168.701 45.623 168.779 45.5996C168.861 45.5723 168.957 45.5586 169.066 45.5586C169.145 45.5586 169.209 45.5996 169.26 45.6816C169.314 45.7598 169.342 45.8555 169.342 45.9688C169.342 46.0703 169.311 46.166 169.248 46.2559C169.189 46.3457 169.107 46.4238 169.002 46.4902C168.9 46.5566 168.781 46.6094 168.645 46.6484C168.508 46.6836 168.365 46.7012 168.217 46.7012C167.896 46.7012 167.604 46.6035 167.338 46.4082C167.072 46.209 166.873 45.9062 166.74 45.5C166.729 45.4375 166.709 45.4062 166.682 45.4062C166.65 45.4062 166.625 45.4375 166.605 45.5C166.5 45.7852 166.361 46.043 166.189 46.2734C166.021 46.5 165.824 46.6953 165.598 46.8594C165.375 47.0195 165.129 47.1426 164.859 47.2285C164.594 47.3145 164.312 47.3574 164.016 47.3574C163.703 47.3574 163.416 47.3047 163.154 47.1992C162.896 47.0977 162.674 46.9551 162.486 46.7715C162.299 46.584 162.152 46.3652 162.047 46.1152C161.941 45.8613 161.889 45.5879 161.889 45.2949C161.889 44.9199 161.967 44.5664 162.123 44.2344C162.279 43.9023 162.49 43.6133 162.756 43.3672C163.025 43.1172 163.338 42.9199 163.693 42.7754C164.049 42.6309 164.428 42.5586 164.83 42.5586C164.994 42.5586 165.168 42.5723 165.352 42.5996C165.535 42.623 165.727 42.6621 165.926 42.7168ZM164.244 46.3027C164.467 46.3027 164.664 46.2539 164.836 46.1562C165.012 46.0586 165.166 45.9355 165.299 45.7871C165.436 45.6348 165.551 45.4688 165.645 45.2891C165.738 45.1055 165.814 44.9277 165.873 44.7559C165.932 44.584 165.975 44.4297 166.002 44.293C166.029 44.1562 166.043 44.0586 166.043 44C166.043 43.957 166.031 43.9199 166.008 43.8887C165.984 43.8535 165.949 43.8262 165.902 43.8066C165.797 43.7793 165.688 43.7559 165.574 43.7363C165.461 43.7129 165.35 43.6934 165.24 43.6777C165.131 43.6621 165.025 43.6504 164.924 43.6426C164.826 43.6348 164.736 43.6309 164.654 43.6309C164.42 43.6309 164.207 43.666 164.016 43.7363C163.824 43.8066 163.66 43.9062 163.523 44.0352C163.391 44.1641 163.287 44.3184 163.213 44.498C163.139 44.6738 163.102 44.8672 163.102 45.0781C163.102 45.2656 163.129 45.4355 163.184 45.5879C163.242 45.7363 163.32 45.8633 163.418 45.9688C163.52 46.0742 163.641 46.1562 163.781 46.2148C163.922 46.2734 164.076 46.3027 164.244 46.3027ZM169.916 41.0234C169.803 41.0234 169.695 41.0078 169.594 40.9766C169.496 40.9414 169.41 40.8945 169.336 40.8359C169.266 40.7734 169.209 40.7012 169.166 40.6191C169.123 40.5371 169.102 40.4473 169.102 40.3496C169.102 40.1855 169.166 40.0527 169.295 39.9512C169.428 39.8496 169.604 39.7988 169.822 39.7988C169.924 39.7988 170.021 39.8184 170.115 39.8574C170.209 39.8926 170.291 39.9414 170.361 40.0039C170.436 40.0664 170.494 40.1406 170.537 40.2266C170.58 40.3086 170.602 40.3945 170.602 40.4844C170.602 40.6523 170.539 40.7852 170.414 40.8828C170.293 40.9766 170.127 41.0234 169.916 41.0234ZM169.113 42.8105C169.113 42.6738 169.172 42.5625 169.289 42.4766C169.41 42.3867 169.568 42.3418 169.764 42.3418C170.115 42.3418 170.303 42.4629 170.326 42.7051C170.342 42.873 170.357 43.0625 170.373 43.2734C170.393 43.4844 170.41 43.709 170.426 43.9473C170.445 44.1816 170.461 44.4258 170.473 44.6797C170.488 44.9297 170.502 45.1777 170.514 45.4238C170.525 45.666 170.535 45.9004 170.543 46.127C170.551 46.3535 170.555 46.5605 170.555 46.748C170.555 46.9434 170.484 47.0898 170.344 47.1875C170.207 47.2852 170.006 47.334 169.74 47.334C169.619 47.334 169.523 47.3047 169.453 47.2461C169.387 47.1914 169.354 47.1094 169.354 47C169.354 46.4609 169.34 45.957 169.312 45.4883C169.289 45.0156 169.262 44.5957 169.23 44.2285C169.203 43.8613 169.176 43.5566 169.148 43.3145C169.125 43.0684 169.113 42.9004 169.113 42.8105ZM174.738 42.4297C174.926 42.4297 175.104 42.4453 175.271 42.4766C175.439 42.5039 175.592 42.5352 175.729 42.5703C175.865 42.6016 175.982 42.6328 176.08 42.6641C176.178 42.6914 176.248 42.7051 176.291 42.7051C176.326 42.7051 176.359 42.6875 176.391 42.6523C176.422 42.6133 176.461 42.5723 176.508 42.5293C176.555 42.4863 176.617 42.4473 176.695 42.4121C176.773 42.373 176.877 42.3535 177.006 42.3535C177.154 42.3535 177.271 42.3926 177.357 42.4707C177.443 42.5449 177.486 42.6387 177.486 42.752C177.486 44.1816 177.438 45.3965 177.34 46.3965C177.242 47.3926 177.084 48.2031 176.865 48.8281C176.646 49.4531 176.363 49.9062 176.016 50.1875C175.668 50.4688 175.246 50.6094 174.75 50.6094C174.523 50.6094 174.287 50.5586 174.041 50.457C173.799 50.3555 173.576 50.2246 173.373 50.0645C173.17 49.9082 173.002 49.7344 172.869 49.543C172.74 49.3516 172.676 49.168 172.676 48.9922C172.676 48.9336 172.707 48.8652 172.77 48.7871C172.832 48.709 172.908 48.6328 172.998 48.5586C173.088 48.4844 173.182 48.4219 173.279 48.3711C173.377 48.3203 173.461 48.2949 173.531 48.2949C173.605 48.2949 173.668 48.3242 173.719 48.3828C173.77 48.4453 173.816 48.5215 173.859 48.6113C173.906 48.7012 173.953 48.7988 174 48.9043C174.047 49.0137 174.105 49.1133 174.176 49.2031C174.246 49.293 174.332 49.3672 174.434 49.4258C174.535 49.4883 174.662 49.5195 174.814 49.5195C175.666 49.5195 176.166 48.2188 176.314 45.6172C176.314 45.5 176.281 45.4414 176.215 45.4414C176.16 45.4414 176.117 45.4688 176.086 45.5234C175.719 46.0195 175.289 46.3926 174.797 46.6426C174.309 46.8887 173.766 47.0117 173.168 47.0117C172.891 47.0117 172.635 46.9707 172.4 46.8887C172.166 46.8027 171.963 46.6855 171.791 46.5371C171.623 46.3848 171.492 46.2051 171.398 45.998C171.305 45.7871 171.258 45.5566 171.258 45.3066C171.258 45.0605 171.301 44.8184 171.387 44.5801C171.477 44.3379 171.6 44.1113 171.756 43.9004C171.916 43.6855 172.105 43.4883 172.324 43.3086C172.543 43.1289 172.781 42.9746 173.039 42.8457C173.297 42.7129 173.568 42.6113 173.854 42.541C174.143 42.4668 174.438 42.4297 174.738 42.4297ZM173.35 45.9336C173.885 45.9336 174.375 45.7656 174.82 45.4297C175.266 45.0898 175.646 44.5977 175.963 43.9531C175.971 43.9297 175.977 43.9121 175.98 43.9004C175.984 43.8848 175.986 43.8691 175.986 43.8535C175.986 43.8145 175.945 43.7734 175.863 43.7305C175.781 43.6875 175.674 43.6504 175.541 43.6191C175.408 43.5879 175.256 43.5625 175.084 43.543C174.916 43.5195 174.746 43.5078 174.574 43.5078C174.297 43.5078 174.029 43.5547 173.771 43.6484C173.514 43.7422 173.285 43.8672 173.086 44.0234C172.887 44.1797 172.727 44.3574 172.605 44.5566C172.484 44.7559 172.424 44.9629 172.424 45.1777C172.424 45.4082 172.508 45.5918 172.676 45.7285C172.848 45.8652 173.072 45.9336 173.35 45.9336ZM179.35 41.0234C179.236 41.0234 179.129 41.0078 179.027 40.9766C178.93 40.9414 178.844 40.8945 178.77 40.8359C178.699 40.7734 178.643 40.7012 178.6 40.6191C178.557 40.5371 178.535 40.4473 178.535 40.3496C178.535 40.1855 178.6 40.0527 178.729 39.9512C178.861 39.8496 179.037 39.7988 179.256 39.7988C179.357 39.7988 179.455 39.8184 179.549 39.8574C179.643 39.8926 179.725 39.9414 179.795 40.0039C179.869 40.0664 179.928 40.1406 179.971 40.2266C180.014 40.3086 180.035 40.3945 180.035 40.4844C180.035 40.6523 179.973 40.7852 179.848 40.8828C179.727 40.9766 179.561 41.0234 179.35 41.0234ZM178.547 42.8105C178.547 42.6738 178.605 42.5625 178.723 42.4766C178.844 42.3867 179.002 42.3418 179.197 42.3418C179.549 42.3418 179.736 42.4629 179.76 42.7051C179.775 42.873 179.791 43.0625 179.807 43.2734C179.826 43.4844 179.844 43.709 179.859 43.9473C179.879 44.1816 179.895 44.4258 179.906 44.6797C179.922 44.9297 179.936 45.1777 179.947 45.4238C179.959 45.666 179.969 45.9004 179.977 46.127C179.984 46.3535 179.988 46.5605 179.988 46.748C179.988 46.9434 179.918 47.0898 179.777 47.1875C179.641 47.2852 179.439 47.334 179.174 47.334C179.053 47.334 178.957 47.3047 178.887 47.2461C178.82 47.1914 178.787 47.1094 178.787 47C178.787 46.4609 178.773 45.957 178.746 45.4883C178.723 45.0156 178.695 44.5957 178.664 44.2285C178.637 43.8613 178.609 43.5566 178.582 43.3145C178.559 43.0684 178.547 42.9004 178.547 42.8105ZM181.617 40.2324C181.617 40.0254 181.676 39.8809 181.793 39.7988C181.91 39.7129 182.104 39.6699 182.373 39.6699C182.471 39.6699 182.553 39.6797 182.619 39.6992C182.689 39.7148 182.748 39.7461 182.795 39.793C182.846 39.8398 182.885 39.9023 182.912 39.9805C182.943 40.0547 182.969 40.1504 182.988 40.2676C183.035 40.6309 183.086 41.0059 183.141 41.3926C183.199 41.7793 183.26 42.168 183.322 42.5586C183.346 42.7344 183.438 42.8223 183.598 42.8223C183.641 42.8223 183.711 42.8184 183.809 42.8105C183.91 42.7988 184.029 42.7871 184.166 42.7754C184.303 42.7598 184.449 42.7441 184.605 42.7285C184.766 42.7129 184.924 42.6992 185.08 42.6875C185.24 42.6719 185.391 42.6602 185.531 42.6523C185.676 42.6406 185.803 42.6348 185.912 42.6348C185.998 42.6348 186.066 42.6523 186.117 42.6875C186.168 42.7188 186.207 42.7617 186.234 42.8164C186.266 42.8672 186.285 42.9258 186.293 42.9922C186.305 43.0547 186.311 43.1191 186.311 43.1855C186.311 43.2441 186.299 43.3047 186.275 43.3672C186.256 43.4297 186.227 43.4863 186.188 43.5371C186.152 43.584 186.107 43.623 186.053 43.6543C185.998 43.6855 185.936 43.7012 185.865 43.7012C185.525 43.7012 185.182 43.7129 184.834 43.7363C184.49 43.7559 184.146 43.7832 183.803 43.8184C183.627 43.8418 183.539 43.9297 183.539 44.082C183.539 44.0938 183.541 44.1094 183.545 44.1289C183.549 44.1445 183.551 44.1582 183.551 44.1699C183.598 44.5098 183.641 44.8281 183.68 45.125C183.723 45.4219 183.758 45.6875 183.785 45.9219C183.816 46.1523 183.84 46.3457 183.855 46.502C183.875 46.6543 183.885 46.7559 183.885 46.8066C183.885 46.9473 183.871 47.0645 183.844 47.1582C183.816 47.2559 183.771 47.334 183.709 47.3926C183.646 47.4551 183.562 47.498 183.457 47.5215C183.355 47.5488 183.227 47.5625 183.07 47.5625C182.922 47.5625 182.812 47.5273 182.742 47.457C182.672 47.3867 182.633 47.2793 182.625 47.1348C182.602 46.6738 182.564 46.2109 182.514 45.7461C182.463 45.2773 182.404 44.8105 182.338 44.3457C182.303 44.1777 182.215 44.0938 182.074 44.0938C182.062 44.0938 182.049 44.0957 182.033 44.0996C182.018 44.1035 182.004 44.1055 181.992 44.1055C181.75 44.1602 181.521 44.2148 181.307 44.2695C181.092 44.3242 180.891 44.3828 180.703 44.4453C180.598 44.4805 180.504 44.5059 180.422 44.5215C180.34 44.5332 180.266 44.5391 180.199 44.5391C180.109 44.5391 180.043 44.5 180 44.4219C179.957 44.3398 179.936 44.2383 179.936 44.1172C179.936 44.0742 179.939 44.0254 179.947 43.9707C179.955 43.9121 179.971 43.8555 179.994 43.8008C180.014 43.7422 180.045 43.6895 180.088 43.6426C180.127 43.5918 180.182 43.5508 180.252 43.5195C180.416 43.4531 180.635 43.3848 180.908 43.3145C181.182 43.2402 181.49 43.1719 181.834 43.1094C181.912 43.0898 181.973 43.0586 182.016 43.0156C182.062 42.9688 182.086 42.9004 182.086 42.8105C182.086 42.791 182.086 42.7715 182.086 42.752C182.086 42.7285 182.082 42.7051 182.074 42.6816C182.012 42.3223 181.951 41.9961 181.893 41.7031C181.838 41.4062 181.789 41.1523 181.746 40.9414C181.707 40.7305 181.676 40.5645 181.652 40.4434C181.629 40.3223 181.617 40.252 181.617 40.2324ZM189.65 41.8789C189.865 41.8789 190.072 41.9121 190.271 41.9785C190.471 42.0449 190.646 42.1367 190.799 42.2539C190.951 42.3711 191.072 42.5117 191.162 42.6758C191.256 42.8398 191.303 43.0215 191.303 43.2207C191.303 43.3027 191.283 43.3828 191.244 43.4609C191.209 43.5352 191.16 43.6016 191.098 43.6602C191.035 43.7148 190.963 43.7598 190.881 43.7949C190.803 43.8262 190.721 43.8418 190.635 43.8418C190.627 43.8418 190.619 43.8438 190.611 43.8477C190.607 43.8477 190.602 43.8477 190.594 43.8477C190.586 43.8516 190.578 43.8535 190.57 43.8535L190.594 44.3223C190.609 44.8809 190.688 45.2891 190.828 45.5469C190.973 45.8047 191.16 45.9336 191.391 45.9336C191.473 45.9336 191.545 45.9258 191.607 45.9102C191.674 45.8945 191.734 45.877 191.789 45.8574C191.848 45.834 191.902 45.8145 191.953 45.7988C192.004 45.7832 192.055 45.7754 192.105 45.7754C192.195 45.7754 192.273 45.8145 192.34 45.8926C192.41 45.9707 192.445 46.0645 192.445 46.1738C192.445 46.2832 192.402 46.3926 192.316 46.502C192.234 46.6113 192.125 46.7109 191.988 46.8008C191.852 46.8867 191.697 46.957 191.525 47.0117C191.354 47.0664 191.18 47.0938 191.004 47.0938C190.699 47.0938 190.432 46.9688 190.201 46.7188C189.971 46.4648 189.807 46.0938 189.709 45.6055C189.686 45.5273 189.654 45.4883 189.615 45.4883C189.568 45.4883 189.527 45.5117 189.492 45.5586C189.105 46.0469 188.693 46.4141 188.256 46.6602C187.818 46.9023 187.387 47.0234 186.961 47.0234C186.762 47.0234 186.582 46.9941 186.422 46.9355C186.262 46.877 186.125 46.7949 186.012 46.6895C185.902 46.5801 185.816 46.4492 185.754 46.2969C185.695 46.1406 185.666 45.9668 185.666 45.7754C185.666 45.5059 185.725 45.2227 185.842 44.9258C185.963 44.6289 186.125 44.3359 186.328 44.0469C186.531 43.7578 186.766 43.4824 187.031 43.2207C187.301 42.959 187.582 42.7285 187.875 42.5293C188.172 42.3301 188.473 42.1719 188.777 42.0547C189.082 41.9375 189.373 41.8789 189.65 41.8789ZM189.457 43.9062C189.527 43.7734 189.592 43.6777 189.65 43.6191C189.709 43.5566 189.793 43.5156 189.902 43.4961C189.988 43.4844 190.031 43.457 190.031 43.4141C190.031 43.3828 190.02 43.3496 189.996 43.3145C189.922 43.2129 189.844 43.125 189.762 43.0508C189.68 42.9727 189.57 42.9336 189.434 42.9336C189.285 42.9336 189.119 42.9766 188.936 43.0625C188.752 43.1484 188.564 43.2637 188.373 43.4082C188.186 43.5488 188 43.7109 187.816 43.8945C187.637 44.0742 187.477 44.2598 187.336 44.4512C187.195 44.6426 187.082 44.832 186.996 45.0195C186.91 45.207 186.867 45.375 186.867 45.5234C186.867 45.6562 186.902 45.7598 186.973 45.834C187.047 45.9082 187.146 45.9453 187.271 45.9453C187.592 45.9453 187.941 45.7754 188.32 45.4355C188.699 45.0957 189.078 44.5859 189.457 43.9062ZM192.322 40.3262C192.322 40.123 192.381 39.9785 192.498 39.8926C192.615 39.8066 192.809 39.7637 193.078 39.7637C193.172 39.7637 193.254 39.7734 193.324 39.793C193.395 39.8125 193.453 39.8457 193.5 39.8926C193.547 39.9355 193.584 39.9961 193.611 40.0742C193.643 40.1484 193.668 40.2441 193.688 40.3613C193.738 40.709 193.789 41.0742 193.84 41.457C193.895 41.8359 193.945 42.2148 193.992 42.5938C194.043 42.9688 194.09 43.3359 194.133 43.6953C194.176 44.0508 194.213 44.3828 194.244 44.6914C194.279 44.9961 194.305 45.2676 194.32 45.5059C194.34 45.7402 194.35 45.9258 194.35 46.0625C194.35 46.2031 194.336 46.3223 194.309 46.4199C194.285 46.5176 194.242 46.5957 194.18 46.6543C194.121 46.7129 194.043 46.7559 193.945 46.7832C193.852 46.8066 193.734 46.8184 193.594 46.8184C193.457 46.8184 193.348 46.7832 193.266 46.7129C193.188 46.6426 193.148 46.5352 193.148 46.3906C193.148 46.2422 193.137 46.0449 193.113 45.7988C193.09 45.5488 193.059 45.2715 193.02 44.9668C192.98 44.6621 192.936 44.3379 192.885 43.9941C192.838 43.6504 192.787 43.3105 192.732 42.9746C192.682 42.6387 192.631 42.3164 192.58 42.0078C192.533 41.6953 192.49 41.4199 192.451 41.1816C192.412 40.9395 192.381 40.7422 192.357 40.5898C192.334 40.4336 192.322 40.3457 192.322 40.3262ZM196.77 46.8945C196.656 46.8945 196.549 46.877 196.447 46.8418C196.35 46.8066 196.264 46.7598 196.189 46.7012C196.115 46.6387 196.057 46.5664 196.014 46.4844C195.975 46.4023 195.955 46.3145 195.955 46.2207C195.955 46.0566 196.02 45.9238 196.148 45.8223C196.281 45.7207 196.455 45.6699 196.67 45.6699C196.771 45.6699 196.869 45.6895 196.963 45.7285C197.061 45.7637 197.145 45.8125 197.215 45.875C197.289 45.9375 197.348 46.0098 197.391 46.0918C197.434 46.1738 197.455 46.2598 197.455 46.3496C197.455 46.5215 197.393 46.6562 197.268 46.7539C197.146 46.8477 196.98 46.8945 196.77 46.8945ZM200.713 40.9531C200.732 40.9961 200.744 41.0762 200.748 41.1934C200.752 41.3066 200.754 41.4531 200.754 41.6328C200.754 42.1641 200.732 42.6035 200.689 42.9512C200.65 43.2988 200.594 43.5742 200.52 43.7773C200.449 43.9805 200.363 44.123 200.262 44.2051C200.164 44.2832 200.059 44.3223 199.945 44.3223C199.898 44.3223 199.85 44.3184 199.799 44.3105C199.748 44.2988 199.699 44.2832 199.652 44.2637C199.609 44.2402 199.574 44.2109 199.547 44.1758C199.52 44.1367 199.506 44.0898 199.506 44.0352C199.506 43.9141 199.516 43.7188 199.535 43.4492C199.555 43.1758 199.564 42.8516 199.564 42.4766C199.564 42.2812 199.559 42.1113 199.547 41.9668C199.539 41.8184 199.529 41.6895 199.518 41.5801C199.51 41.4707 199.5 41.377 199.488 41.2988C199.48 41.2207 199.477 41.1523 199.477 41.0938C199.477 40.957 199.541 40.8652 199.67 40.8184C199.799 40.7715 199.959 40.748 200.15 40.748C200.275 40.748 200.393 40.7637 200.502 40.7949C200.611 40.8262 200.682 40.8789 200.713 40.9531ZM202.641 40.9531C202.66 40.9961 202.672 41.0762 202.676 41.1934C202.68 41.3066 202.682 41.4531 202.682 41.6328C202.682 42.1641 202.66 42.6035 202.617 42.9512C202.578 43.2988 202.521 43.5742 202.447 43.7773C202.377 43.9805 202.291 44.123 202.189 44.2051C202.092 44.2832 201.986 44.3223 201.873 44.3223C201.826 44.3223 201.777 44.3184 201.727 44.3105C201.676 44.2988 201.627 44.2832 201.58 44.2637C201.537 44.2402 201.502 44.2109 201.475 44.1758C201.447 44.1367 201.434 44.0898 201.434 44.0352C201.434 43.9141 201.443 43.7188 201.463 43.4492C201.482 43.1758 201.492 42.8516 201.492 42.4766C201.492 42.2812 201.486 42.1113 201.475 41.9668C201.467 41.8184 201.457 41.6895 201.445 41.5801C201.438 41.4707 201.428 41.377 201.416 41.2988C201.408 41.2207 201.404 41.1523 201.404 41.0938C201.404 40.957 201.469 40.8652 201.598 40.8184C201.727 40.7715 201.887 40.748 202.078 40.748C202.203 40.748 202.32 40.7637 202.43 40.7949C202.539 40.8262 202.609 40.8789 202.641 40.9531Z" fill="#E0E0E0"/>
</svg>
